<svg width="24" height="24" viewBox="0 0 24 24" fill="none" xmlns="http://www.w3.org/2000/svg">
<path d="M21.9235 11.6C19.9035 6.91 16.1035 4 12.0035 4C7.90348 4 4.10348 6.91 2.08348 11.6C2.02842 11.7262 2 11.8623 2 12C2 12.1377 2.02842 12.2738 2.08348 12.4C4.10348 17.09 7.90348 20 12.0035 20C16.1035 20 19.9035 17.09 21.9235 12.4C21.9785 12.2738 22.007 12.1377 22.007 12C22.007 11.8623 21.9785 11.7262 21.9235 11.6ZM12.0035 18C8.83348 18 5.83348 15.71 4.10348 12C5.83348 8.29 8.83348 6 12.0035 6C15.1735 6 18.1735 8.29 19.9035 12C18.1735 15.71 15.1735 18 12.0035 18Z" fill="#F8FEFE"/>
<path d="M12 8C11.2089 8 10.4355 8.2346 9.77772 8.67412C9.11993 9.11365 8.60723 9.73836 8.30448 10.4693C8.00173 11.2002 7.92252 12.0044 8.07686 12.7804C8.2312 13.5563 8.61216 14.269 9.17157 14.8284C9.73098 15.3878 10.4437 15.7688 11.2196 15.9231C11.9956 16.0775 12.7998 15.9983 13.5307 15.6955C14.2616 15.3928 14.8864 14.8801 15.3259 14.2223C15.7654 13.5645 16 12.7911 16 12C16 10.9391 15.5786 9.92172 14.8284 9.17157C14.0783 8.42143 13.0609 8 12 8ZM12 14C11.6044 14 11.2178 13.8827 10.8889 13.6629C10.56 13.4432 10.3036 13.1308 10.1522 12.7654C10.0009 12.3999 9.96126 11.9978 10.0384 11.6098C10.1156 11.2219 10.3061 10.8655 10.5858 10.5858C10.8655 10.3061 11.2219 10.1156 11.6098 10.0384C11.9978 9.96126 12.3999 10.0009 12.7654 10.1522C13.1308 10.3036 13.4432 10.56 13.6629 10.8889C13.8827 11.2178 14 11.6044 14 12C14 12.5304 13.7893 13.0391 13.4142 13.4142C13.0391 13.7893 12.5304 14 12 14Z" fill="#8AD6F0"/>
</svg>
