<svg width="24" height="24" viewBox="0 0 24 24" fill="none" xmlns="http://www.w3.org/2000/svg">
<g opacity="0.1">
<path d="M3.70628 2.29019C3.61304 2.19695 3.50235 2.12299 3.38053 2.07253C3.25871 2.02207 3.12814 1.99609 2.99628 1.99609C2.86442 1.99609 2.73385 2.02207 2.61203 2.07253C2.49021 2.12299 2.37952 2.19695 2.28628 2.29019C2.09798 2.47849 1.99219 2.73388 1.99219 3.00019C1.99219 3.26649 2.09798 3.52188 2.28628 3.71019L5.38628 6.80019C3.97185 8.16171 2.84614 9.79417 2.07628 11.6002C2.02122 11.7264 1.99279 11.8625 1.99279 12.0002C1.99279 12.1378 2.02122 12.274 2.07628 12.4002C4.09628 17.0902 7.89628 20.0002 11.9963 20.0002C13.7934 19.9878 15.548 19.4527 17.0463 18.4602L20.2863 21.7102C20.3792 21.8039 20.4898 21.8783 20.6117 21.9291C20.7336 21.9798 20.8643 22.006 20.9963 22.006C21.1283 22.006 21.259 21.9798 21.3809 21.9291C21.5027 21.8783 21.6133 21.8039 21.7063 21.7102C21.8 21.6172 21.8744 21.5066 21.9252 21.3848C21.9759 21.2629 22.0021 21.1322 22.0021 21.0002C22.0021 20.8682 21.9759 20.7375 21.9252 20.6156C21.8744 20.4937 21.8 20.3831 21.7063 20.2902L3.70628 2.29019ZM10.0663 11.4802L12.5163 13.9302C12.3473 13.9787 12.1721 14.0022 11.9963 14.0002C11.4658 14.0002 10.9571 13.7895 10.5821 13.4144C10.207 13.0393 9.99628 12.5306 9.99628 12.0002C9.99423 11.8244 10.0178 11.6492 10.0663 11.4802ZM11.9963 18.0002C8.81628 18.0002 5.82628 15.7102 4.09628 12.0002C4.74237 10.5739 5.65935 9.28676 6.79628 8.21019L8.56628 10.0002C8.15053 10.759 7.99202 11.6321 8.11454 12.4886C8.23706 13.3452 8.634 14.1388 9.24581 14.7507C9.85762 15.3625 10.6513 15.7594 11.5078 15.8819C12.3643 16.0044 13.2375 15.8459 13.9963 15.4302L15.5863 17.0002C14.4974 17.6411 13.2597 17.9858 11.9963 18.0002Z" fill="#F8FEFE"/>
<path d="M10.9343 6.0801C11.2851 6.02633 11.6395 5.99959 11.9943 6.0001C15.1743 6.0001 18.1643 8.2901 19.9043 12.0001C19.6382 12.5647 19.3377 13.1124 19.0043 13.6401C18.8985 13.8039 18.8429 13.9951 18.8443 14.1901C18.8466 14.4083 18.9201 14.6199 19.0538 14.7924C19.1875 14.9649 19.3739 15.089 19.5847 15.1456C19.7955 15.2023 20.019 15.1884 20.2211 15.1062C20.4233 15.0239 20.593 14.8778 20.7043 14.6901C21.1703 13.958 21.575 13.1888 21.9143 12.3901C21.968 12.2653 21.9957 12.1309 21.9957 11.9951C21.9957 11.8593 21.968 11.7249 21.9143 11.6001C19.8943 6.9101 16.0943 4.0001 11.9943 4.0001C11.525 3.99773 11.0564 4.0379 10.5943 4.1201C10.463 4.14242 10.3374 4.1904 10.2246 4.26128C10.1118 4.33216 10.0141 4.42456 9.93703 4.5332C9.85996 4.64184 9.80504 4.76461 9.77541 4.89447C9.74578 5.02434 9.74202 5.15878 9.76435 5.2901C9.78667 5.42142 9.83464 5.54706 9.90552 5.65984C9.9764 5.77262 10.0688 5.87034 10.1774 5.94741C10.2861 6.02449 10.4089 6.07941 10.5387 6.10903C10.6686 6.13866 10.803 6.14242 10.9343 6.1201V6.0801Z" fill="#8AD6F0"/>
</g>
</svg>
