<svg width="25" height="24" viewBox="0 0 25 24" fill="none" xmlns="http://www.w3.org/2000/svg">
<g clip-path="url(#clip0_151_24752)">
<path fill-rule="evenodd" clip-rule="evenodd" d="M21.5 5V7.28L19.5 7V5H5.5V19H19.5V17L21.5 16.72V19C21.5 20.1 20.6 21 19.5 21H5.5C4.39 21 3.5 20.1 3.5 19V5C3.5 3.9 4.39 3 5.5 3H19.5C20.6 3 21.5 3.9 21.5 5Z" fill="#F8FEFE"/>
<path fill-rule="evenodd" clip-rule="evenodd" d="M21.5 16.72C22.09 16.37 22.5 15.74 22.5 15V9C22.5 8.26 22.09 7.63 21.5 7.28L19.5 7H13.5C12.4 7 11.5 7.9 11.5 9V15C11.5 16.1 12.4 17 13.5 17H19.5L21.5 16.72ZM20.5 15V9H13.5V15H20.5Z" fill="#8AD6F0"/>
<path d="M16.5 13.5C17.3284 13.5 18 12.8284 18 12C18 11.1716 17.3284 10.5 16.5 10.5C15.6716 10.5 15 11.1716 15 12C15 12.8284 15.6716 13.5 16.5 13.5Z" fill="#8AD6F0"/>
</g>
<defs>
<clipPath id="clip0_151_24752">
<rect width="24" height="24" fill="white" transform="translate(0.5)"/>
</clipPath>
</defs>
</svg>
