<svg width="25" height="24" viewBox="0 0 25 24" fill="none" xmlns="http://www.w3.org/2000/svg">
<path d="M16.5 20H8.5C7.70435 20 6.94129 19.6839 6.37868 19.1213C5.81607 18.5587 5.5 17.7956 5.5 17V7C5.5 6.73478 5.39464 6.48043 5.20711 6.29289C5.01957 6.10536 4.76522 6 4.5 6C4.23478 6 3.98043 6.10536 3.79289 6.29289C3.60536 6.48043 3.5 6.73478 3.5 7V17C3.5 18.3261 4.02678 19.5979 4.96447 20.5355C5.90215 21.4732 7.17392 22 8.5 22H16.5C16.7652 22 17.0196 21.8946 17.2071 21.7071C17.3946 21.5196 17.5 21.2652 17.5 21C17.5 20.7348 17.3946 20.4804 17.2071 20.2929C17.0196 20.1054 16.7652 20 16.5 20Z" fill="#8AD6F0"/>
<path d="M21.5 8.94C21.4896 8.84813 21.4695 8.75763 21.44 8.67V8.58C21.3919 8.47718 21.3278 8.38267 21.25 8.3L15.25 2.3C15.1673 2.22222 15.0728 2.15808 14.97 2.11H14.88L14.56 2H10.5C9.70435 2 8.94129 2.31607 8.37868 2.87868C7.81607 3.44129 7.5 4.20435 7.5 5V15C7.5 15.7956 7.81607 16.5587 8.37868 17.1213C8.94129 17.6839 9.70435 18 10.5 18H18.5C19.2956 18 20.0587 17.6839 20.6213 17.1213C21.1839 16.5587 21.5 15.7956 21.5 15V9C21.5 9 21.5 9 21.5 8.94ZM15.5 5.41L18.09 8H16.5C16.2348 8 15.9804 7.89464 15.7929 7.70711C15.6054 7.51957 15.5 7.26522 15.5 7V5.41ZM19.5 15C19.5 15.2652 19.3946 15.5196 19.2071 15.7071C19.0196 15.8946 18.7652 16 18.5 16H10.5C10.2348 16 9.98043 15.8946 9.79289 15.7071C9.60536 15.5196 9.5 15.2652 9.5 15V5C9.5 4.73478 9.60536 4.48043 9.79289 4.29289C9.98043 4.10536 10.2348 4 10.5 4H13.5V7C13.5 7.79565 13.8161 8.55871 14.3787 9.12132C14.9413 9.68393 15.7044 10 16.5 10H19.5V15Z" fill="#F8FEFE"/>
</svg>
