<svg width="24" height="24" viewBox="0 0 24 24" fill="none" xmlns="http://www.w3.org/2000/svg">
<path d="M5.00002 17.9999H9.24002C9.37162 18.0007 9.50209 17.9755 9.62392 17.9257C9.74576 17.8759 9.85658 17.8026 9.95002 17.7099L16.87 10.7799L19.71 7.99994C19.8037 7.90698 19.8781 7.79637 19.9289 7.67452C19.9797 7.55266 20.0058 7.42195 20.0058 7.28994C20.0058 7.15793 19.9797 7.02722 19.9289 6.90536C19.8781 6.7835 19.8037 6.6729 19.71 6.57994L15.47 2.28994C15.3771 2.19621 15.2665 2.12182 15.1446 2.07105C15.0227 2.02028 14.892 1.99414 14.76 1.99414C14.628 1.99414 14.4973 2.02028 14.3754 2.07105C14.2536 2.12182 14.143 2.19621 14.05 2.28994L11.23 5.11994L4.29002 12.0499C4.19734 12.1434 4.12401 12.2542 4.07425 12.376C4.02448 12.4979 3.99926 12.6283 4.00002 12.7599V16.9999C4.00002 17.2652 4.10537 17.5195 4.29291 17.707C4.48045 17.8946 4.7348 17.9999 5.00002 17.9999ZM14.76 4.40994L17.59 7.23994L16.17 8.65994L13.34 5.82994L14.76 4.40994ZM6.00002 13.1699L11.93 7.23994L14.76 10.0699L8.83002 15.9999H6.00002V13.1699Z" fill="#F8FEFE"/>
<path d="M21 20H3C2.73478 20 2.48043 20.1054 2.29289 20.2929C2.10536 20.4804 2 20.7348 2 21C2 21.2652 2.10536 21.5196 2.29289 21.7071C2.48043 21.8946 2.73478 22 3 22H21C21.2652 22 21.5196 21.8946 21.7071 21.7071C21.8946 21.5196 22 21.2652 22 21C22 20.7348 21.8946 20.4804 21.7071 20.2929C21.5196 20.1054 21.2652 20 21 20Z" fill="#8AD6F0"/>
</svg>
