<svg width="24" height="24" viewBox="0 0 24 24" fill="none" xmlns="http://www.w3.org/2000/svg">
<path d="M21.7094 20.2894L17.9994 16.6094L16.6094 17.9994L20.2894 21.6794C20.3823 21.7731 20.4929 21.8475 20.6148 21.8983C20.7367 21.949 20.8674 21.9752 20.9994 21.9752C21.1314 21.9752 21.2621 21.949 21.384 21.8983C21.5058 21.8475 21.6164 21.7731 21.7094 21.6794C21.8896 21.4929 21.9904 21.2437 21.9904 20.9844C21.9904 20.725 21.8896 20.4758 21.7094 20.2894Z" fill="#8AD6F0"/>
<path fill-rule="evenodd" clip-rule="evenodd" d="M17.9975 16.6094C19.4376 14.8138 20.135 12.5347 19.9463 10.2407C19.7576 7.94672 18.6971 5.8122 16.983 4.27606C15.2688 2.73992 13.0313 1.91893 10.7304 1.98189C8.4295 2.04485 6.24018 2.98698 4.6126 4.61456C2.98502 6.24214 2.04289 8.43145 1.97993 10.7323C1.91697 13.0332 2.73797 15.2708 4.27411 16.9849C5.81025 18.6991 7.94476 19.7595 10.2388 19.9482C12.5328 20.1369 14.8119 19.4395 16.6075 17.9994L17.9975 16.6094ZM7.10847 16.8197C8.25962 17.5889 9.61299 17.9994 10.9975 17.9994C12.854 17.9994 14.6345 17.2619 15.9472 15.9492C17.26 14.6364 17.9975 12.8559 17.9975 10.9994C17.9975 9.61495 17.5869 8.26157 16.8178 7.11042C16.0486 5.95928 14.9553 5.06207 13.6762 4.53226C12.3972 4.00245 10.9897 3.86382 9.63183 4.13392C8.27396 4.40402 7.02668 5.0707 6.04772 6.04967C5.06875 7.02864 4.40206 8.27592 4.13197 9.63378C3.86187 10.9917 4.00049 12.3991 4.53031 13.6782C5.06012 14.9573 5.95733 16.0505 7.10847 16.8197Z" fill="#F8FEFE"/>
</svg>
