<svg width="25" height="24" viewBox="0 0 25 24" fill="none" xmlns="http://www.w3.org/2000/svg">
<path d="M13.8 12.22C14.3336 11.7581 14.7616 11.1869 15.0549 10.545C15.3482 9.90316 15.5 9.20571 15.5 8.5C15.5 7.17392 14.9732 5.90215 14.0355 4.96447C13.0979 4.02678 11.8261 3.5 10.5 3.5C9.17392 3.5 7.90215 4.02678 6.96447 4.96447C6.02678 5.90215 5.5 7.17392 5.5 8.5C5.49999 9.20571 5.6518 9.90316 5.94513 10.545C6.23845 11.1869 6.66642 11.7581 7.2 12.22C5.80014 12.8539 4.61247 13.8775 3.77898 15.1685C2.9455 16.4596 2.50147 17.9633 2.5 19.5C2.5 19.7652 2.60536 20.0196 2.79289 20.2071C2.98043 20.3946 3.23478 20.5 3.5 20.5C3.76522 20.5 4.01957 20.3946 4.20711 20.2071C4.39464 20.0196 4.5 19.7652 4.5 19.5C4.5 17.9087 5.13214 16.3826 6.25736 15.2574C7.38258 14.1321 8.9087 13.5 10.5 13.5C12.0913 13.5 13.6174 14.1321 14.7426 15.2574C15.8679 16.3826 16.5 17.9087 16.5 19.5C16.5 19.7652 16.6054 20.0196 16.7929 20.2071C16.9804 20.3946 17.2348 20.5 17.5 20.5C17.7652 20.5 18.0196 20.3946 18.2071 20.2071C18.3946 20.0196 18.5 19.7652 18.5 19.5C18.4985 17.9633 18.0545 16.4596 17.221 15.1685C16.3875 13.8775 15.1999 12.8539 13.8 12.22ZM10.5 11.5C9.90666 11.5 9.32664 11.3241 8.83329 10.9944C8.33994 10.6648 7.95542 10.1962 7.72836 9.64805C7.5013 9.09987 7.44189 8.49667 7.55764 7.91473C7.6734 7.33279 7.95912 6.79824 8.37868 6.37868C8.79824 5.95912 9.33279 5.6734 9.91473 5.55764C10.4967 5.44189 11.0999 5.5013 11.6481 5.72836C12.1962 5.95542 12.6648 6.33994 12.9944 6.83329C13.3241 7.32664 13.5 7.90666 13.5 8.5C13.5 9.29565 13.1839 10.0587 12.6213 10.6213C12.0587 11.1839 11.2956 11.5 10.5 11.5Z" fill="#F8FEFE"/>
<path d="M21.5 10.5H20.5V9.5C20.5 9.23478 20.3946 8.98043 20.2071 8.79289C20.0196 8.60536 19.7652 8.5 19.5 8.5C19.2348 8.5 18.9804 8.60536 18.7929 8.79289C18.6054 8.98043 18.5 9.23478 18.5 9.5V10.5H17.5C17.2348 10.5 16.9804 10.6054 16.7929 10.7929C16.6054 10.9804 16.5 11.2348 16.5 11.5C16.5 11.7652 16.6054 12.0196 16.7929 12.2071C16.9804 12.3946 17.2348 12.5 17.5 12.5H18.5V13.5C18.5 13.7652 18.6054 14.0196 18.7929 14.2071C18.9804 14.3946 19.2348 14.5 19.5 14.5C19.7652 14.5 20.0196 14.3946 20.2071 14.2071C20.3946 14.0196 20.5 13.7652 20.5 13.5V12.5H21.5C21.7652 12.5 22.0196 12.3946 22.2071 12.2071C22.3946 12.0196 22.5 11.7652 22.5 11.5C22.5 11.2348 22.3946 10.9804 22.2071 10.7929C22.0196 10.6054 21.7652 10.5 21.5 10.5Z" fill="#8AD6F0"/>
</svg>
