<svg width="24" height="24" viewBox="0 0 24 24" fill="none" xmlns="http://www.w3.org/2000/svg">
<path d="M9.40625 13L16.9963 13C17.2615 13 17.5158 12.8946 17.7034 12.7071C17.8909 12.5196 17.9963 12.2652 17.9963 12C17.9963 11.7348 17.8909 11.4804 17.7034 11.2929C17.5158 11.1054 17.2615 11 16.9963 11L9.40625 11L8.40625 12L9.40625 13Z" fill="#F8FEFE"/>
<path d="M11.285 6.29372L6.28501 11.2937C6.19397 11.3888 6.12261 11.501 6.07501 11.6237C5.975 11.8672 5.975 12.1403 6.07501 12.3837C6.12261 12.5065 6.19397 12.6186 6.28501 12.7137L11.285 17.7137C11.3783 17.807 11.4889 17.8809 11.6108 17.9314C11.7326 17.9818 11.8632 18.0078 11.995 18.0078C12.2613 18.0078 12.5167 17.902 12.705 17.7137C12.8933 17.5254 12.9991 17.27 12.9991 17.0037C12.9991 16.7374 12.8933 16.482 12.705 16.2937L9.40501 13.0037L8.40501 12.0037L9.40501 11.0037L12.705 7.71372C12.7987 7.62076 12.8731 7.51016 12.9239 7.3883C12.9747 7.26644 13.0008 7.13573 13.0008 7.00372C13.0008 6.87171 12.9747 6.741 12.9239 6.61914C12.8731 6.49728 12.7987 6.38669 12.705 6.29372C12.6121 6.19999 12.5014 6.1256 12.3796 6.07483C12.2577 6.02406 12.127 5.99792 11.995 5.99792C11.863 5.99792 11.7323 6.02406 11.6104 6.07483C11.4886 6.1256 11.378 6.19999 11.285 6.29372Z" fill="#8AD6F0"/>
</svg>
