<svg width="20" height="20" viewBox="0 0 20 20" fill="none" xmlns="http://www.w3.org/2000/svg">
<path d="M9.9974 1.66602C8.34922 1.66602 6.73806 2.15476 5.36765 3.07044C3.99724 3.98611 2.92913 5.2876 2.2984 6.81032C1.66767 8.33304 1.50265 10.0086 1.82419 11.6251C2.14573 13.2416 2.93941 14.7265 4.10484 15.8919C5.27028 17.0573 6.75514 17.851 8.37165 18.1726C9.98816 18.4941 11.6637 18.3291 13.1864 17.6983C14.7091 17.0676 16.0106 15.9995 16.9263 14.6291C17.842 13.2587 18.3307 11.6475 18.3307 9.99935C18.3307 8.905 18.1152 7.82137 17.6964 6.81032C17.2776 5.79927 16.6638 4.88061 15.89 4.10679C15.1161 3.33297 14.1975 2.71914 13.1864 2.30035C12.1754 1.88156 11.0917 1.66602 9.9974 1.66602ZM9.9974 16.666C8.67886 16.666 7.38993 16.275 6.2936 15.5425C5.19727 14.8099 4.34279 13.7687 3.8382 12.5506C3.33362 11.3324 3.2016 9.99195 3.45883 8.69875C3.71607 7.40554 4.351 6.21765 5.28335 5.2853C6.2157 4.35295 7.40359 3.71802 8.6968 3.46078C9.99 3.20355 11.3304 3.33557 12.5486 3.84015C13.7668 4.34474 14.808 5.19922 15.5405 6.29555C16.2731 7.39188 16.6641 8.68081 16.6641 9.99935C16.6641 11.7675 15.9617 13.4632 14.7114 14.7134C13.4612 15.9636 11.7655 16.666 9.9974 16.666Z" fill="#2FC177"/>
<path d="M12.2678 7.32436L8.69285 10.9077L7.31785 9.53269C7.24314 9.44546 7.15121 9.37461 7.04782 9.32459C6.94444 9.27457 6.83183 9.24646 6.71706 9.24203C6.60229 9.23759 6.48785 9.25693 6.38091 9.29883C6.27398 9.34072 6.17685 9.40427 6.09564 9.48548C6.01443 9.5667 5.95088 9.66382 5.90898 9.77076C5.86709 9.87769 5.84775 9.99214 5.85218 10.1069C5.85662 10.2217 5.88472 10.3343 5.93474 10.4377C5.98476 10.5411 6.05561 10.633 6.14285 10.7077L8.10118 12.6744C8.17905 12.7516 8.2714 12.8127 8.37293 12.8542C8.47446 12.8956 8.58318 12.9167 8.69285 12.916C8.91147 12.9151 9.12097 12.8283 9.27618 12.6744L13.4428 8.50769C13.521 8.43022 13.583 8.33806 13.6253 8.23651C13.6676 8.13496 13.6893 8.02603 13.6893 7.91603C13.6893 7.80602 13.6676 7.69709 13.6253 7.59554C13.583 7.49399 13.521 7.40183 13.4428 7.32436C13.2867 7.16915 13.0755 7.08203 12.8553 7.08203C12.6352 7.08203 12.424 7.16915 12.2678 7.32436Z" fill="#2FC177"/>
</svg>
