<svg width="20" height="20" viewBox="0 0 20 20" fill="none" xmlns="http://www.w3.org/2000/svg">
<path d="M17.9928 8.29432L19.4767 6.81045C20.1745 6.11264 20.1745 4.97725 19.4767 4.27952L16.9458 1.74859C16.2626 1.06539 15.1342 1.02918 14.2729 1.89054L13.428 2.73534C13.2047 2.95874 12.63 3.00234 12.0216 3.04851C11.5823 3.08183 11.0991 3.11859 10.6072 3.22394C9.60046 2.63878 8.77125 2.67171 8.09805 2.69866C7.41461 2.72613 7.00238 2.74257 6.4634 2.20367L5.69926 1.43953C4.91352 0.653825 3.777 0.605427 3.05559 1.32687L0.524623 3.85772C-0.174751 4.5571 -0.174985 5.68917 0.524584 6.38866L2.00607 7.87018C2.06833 7.95244 2.12216 8.29201 2.15782 8.51717C2.23345 8.99443 2.33095 9.60795 2.67044 10.1643L2.61079 10.224C1.91138 10.9233 1.91122 12.0554 2.61079 12.7549C2.93466 13.0788 3.35274 13.252 3.77766 13.2752C3.80091 13.7001 3.97419 14.1183 4.29805 14.4422C4.6127 14.7568 5.02403 14.9397 5.465 14.9635C5.48844 15.3881 5.66172 15.8058 5.98532 16.1294C6.30891 16.4531 6.72672 16.6263 7.15129 16.6497C7.17508 17.0907 7.35793 17.502 7.67258 17.8166C8.23055 18.3747 9.05375 18.4808 9.70992 18.1667L10.2035 18.6603C10.9029 19.3597 12.035 19.3599 12.7345 18.6603C13.0492 18.3456 13.232 17.9343 13.2558 17.4934C13.6804 17.4699 14.0982 17.2966 14.4218 16.973C14.7454 16.6494 14.9187 16.2316 14.9421 15.8071C15.3831 15.7833 15.7944 15.6005 16.109 15.2858C16.4329 14.9619 16.6062 14.5438 16.6294 14.1189C17.0543 14.0957 17.4724 13.9224 17.7963 13.5985C18.4941 12.9008 18.4941 11.7654 17.7963 11.0676L17.3277 10.5989C17.6881 10.0279 17.7733 9.41799 17.8395 8.94463C17.8737 8.70076 17.9204 8.36682 17.9928 8.29432ZM3.45442 11.9112C3.22126 11.678 3.22126 11.3007 3.45442 11.0676L4.29805 10.2239C4.53051 9.99142 4.90895 9.99123 5.14172 10.2239C5.37489 10.4571 5.37485 10.8344 5.14172 11.0675L4.29805 11.9111C4.06548 12.1438 3.687 12.1438 3.45442 11.9112ZM5.14172 13.5985C4.90911 13.3659 4.90911 12.9874 5.14172 12.7549L5.98539 11.9112C6.21809 11.6786 6.59637 11.6786 6.82903 11.9112C7.06164 12.1438 7.06164 12.5223 6.82903 12.7549L5.98539 13.5985C5.75282 13.8311 5.37442 13.8311 5.14172 13.5985ZM6.82903 15.2858C6.59641 15.0532 6.59641 14.6747 6.82903 14.4422L7.67266 13.5985C7.90527 13.3659 8.28367 13.3659 8.51633 13.5985C8.74949 13.8317 8.74949 14.209 8.51633 14.4422L7.6727 15.2858C7.44004 15.5184 7.06164 15.5184 6.82903 15.2858ZM10.2036 16.1294L9.35992 16.973C9.12679 17.2062 8.74945 17.2062 8.51633 16.973C8.28371 16.7404 8.28367 16.362 8.51629 16.1294L9.35992 15.2858C9.59254 15.0533 9.97097 15.0532 10.2035 15.2857C10.4362 15.5184 10.4362 15.8968 10.2036 16.1294ZM11.8909 17.8167C11.6578 18.0498 11.2804 18.0499 11.0472 17.8167L10.6254 17.3949L11.0473 16.9731C11.191 16.8294 11.3091 16.6622 11.3965 16.4788L11.8909 16.9731C12.1241 17.2063 12.1241 17.5835 11.8909 17.8167ZM16.9527 12.7549C16.7201 12.9875 16.3417 12.9874 16.109 12.7549L13.2199 9.86576C12.987 9.63279 12.6093 9.63279 12.3763 9.86576C12.1434 10.0987 12.1434 10.4764 12.3763 10.7094L15.2654 13.5985C15.498 13.8311 15.498 14.2095 15.2654 14.4422C15.0323 14.6752 14.6549 14.6753 14.4218 14.4422L11.57 11.5904C11.3371 11.3574 10.9593 11.3574 10.7264 11.5904C10.4934 11.8233 10.4934 12.201 10.7264 12.434L13.5782 15.2858C13.8108 15.5184 13.8108 15.8968 13.5782 16.1294C13.3456 16.362 12.9671 16.362 12.7345 16.1294L11.0472 14.4421C10.7236 14.1185 10.3058 13.9452 9.88125 13.9218C9.85746 13.4808 9.67461 13.0695 9.35992 12.7549C9.04527 12.4402 8.63394 12.2573 8.19297 12.2335C8.16953 11.809 7.99625 11.3912 7.67266 11.0676C7.34883 10.7437 6.93067 10.5704 6.50578 10.5472C6.48254 10.1223 6.3093 9.70412 5.98539 9.38029C5.32168 8.71662 4.26227 8.68471 3.55993 9.28365C3.44079 8.98752 3.38782 8.65568 3.33622 8.33045C3.25708 7.83096 3.18227 7.35916 2.85208 7.02893L1.36822 5.54503C1.13509 5.3119 1.13509 4.93456 1.36825 4.70139L3.89915 2.17046C4.15153 1.9182 4.53583 1.96343 4.85547 2.28312L5.61965 3.04726C6.52805 3.95562 7.38746 3.9212 8.1457 3.89077C8.43199 3.87929 8.71109 3.86827 9.00285 3.90604C8.82955 4.02986 8.66679 4.1678 8.51625 4.31847L6.82895 6.00573C6.13114 6.7035 6.13114 7.83889 6.82895 8.53662C7.52734 9.23506 8.66277 9.23377 9.35988 8.53662L11.0472 6.84932C11.2803 6.61623 11.6576 6.6162 11.8908 6.84932L16.9527 11.9112C17.1853 12.1438 17.1853 12.5222 16.9527 12.7549ZM17.1492 7.45069C16.7941 7.80576 16.7249 8.30068 16.658 8.77935C16.6137 9.09619 16.5684 9.41974 16.4447 9.71592L12.7345 6.00569C12.0352 5.30632 10.903 5.30612 10.2036 6.00569L8.51633 7.69295C8.28316 7.92612 7.90582 7.92612 7.67266 7.69295C7.44004 7.46033 7.44004 7.0819 7.67266 6.84932L9.35996 5.16206C10.1337 4.38827 11.1394 4.31198 12.1118 4.23815C12.9469 4.17479 13.7356 4.11495 14.2716 3.57905L15.1165 2.73421C15.4373 2.41335 15.8324 2.32253 16.1021 2.59222L18.633 5.12315C18.8656 5.35577 18.8656 5.7342 18.633 5.96682L17.1492 7.45069Z" fill="#8AD6F0"/>
<path fill-rule="evenodd" clip-rule="evenodd" d="M2.6702 10.1649L2.61056 10.2245C1.91114 10.9239 1.91099 12.056 2.61056 12.7554C2.93442 13.0793 3.35251 13.2526 3.77743 13.2758C3.80067 13.7007 3.97395 14.1189 4.29782 14.4427C4.61247 14.7574 5.02379 14.9403 5.46477 14.964C5.48821 15.3886 5.66149 15.8063 5.98508 16.13C6.30867 16.4536 6.72649 16.6269 7.15106 16.6503C7.17484 17.0913 7.3577 17.5026 7.67234 17.8172C8.23031 18.3752 9.05351 18.4813 9.70968 18.1672L10.2033 18.6609C10.9026 19.3603 12.0348 19.3604 12.7342 18.6609C13.049 18.3462 13.2318 17.9349 13.2556 17.4939L12.7342 16.13L11.047 14.4427C10.7234 14.119 10.3056 13.9458 9.88101 13.9224C9.85722 13.4814 9.67437 13.0701 9.35968 12.7554C9.04504 12.4407 8.63371 12.2579 8.19273 12.2341C8.1693 11.8095 7.99601 11.3918 7.67242 11.0682C7.34859 10.7443 6.93043 10.571 6.50555 10.5478C6.48231 10.1229 6.30906 9.70468 5.98516 9.38085C5.32145 8.71718 4.26204 8.68527 3.55969 9.28421L2.6702 10.1649ZM3.45419 11.0681C3.22102 11.3013 3.22102 11.6786 3.45419 11.9117C3.68676 12.1443 4.06524 12.1443 4.29782 11.9117L5.14149 11.0681C5.37461 10.835 5.37465 10.4576 5.14149 10.2245C4.90872 9.99179 4.53028 9.99199 4.29782 10.2245L3.45419 11.0681ZM5.14149 12.7554C4.90887 12.988 4.90887 13.3664 5.14149 13.599C5.37418 13.8317 5.75258 13.8316 5.98516 13.599L6.82879 12.7554C7.06141 12.5228 7.06141 12.1444 6.82879 11.9118C6.59613 11.6792 6.21785 11.6792 5.98516 11.9118L5.14149 12.7554ZM6.82879 14.4427C6.59617 14.6753 6.59617 15.0537 6.82879 15.2864C7.06141 15.5189 7.43981 15.519 7.67246 15.2864L8.51609 14.4427C8.74926 14.2096 8.74926 13.8323 8.51609 13.5991C8.28344 13.3665 7.90504 13.3665 7.67242 13.5991L6.82879 14.4427ZM9.35968 16.9736L10.2034 16.13C10.4359 15.8974 10.4359 15.5189 10.2033 15.2863C9.97074 15.0538 9.5923 15.0539 9.35968 15.2864L8.51605 16.13C8.28344 16.3626 8.28347 16.741 8.51609 16.9736C8.74922 17.2068 9.12656 17.2067 9.35968 16.9736ZM11.047 17.8173C11.2801 18.0504 11.6575 18.0504 11.8906 17.8173C12.1238 17.5841 12.1238 17.2068 11.8906 16.9737L11.3962 16.4793C11.3089 16.6628 11.1908 16.83 11.047 16.9737L10.6252 17.3955L11.047 17.8173Z" fill="#8AD6F0"/>
<path d="M17.9926 8.29488L19.4765 6.81102C20.1743 6.1132 20.1743 4.97782 19.4765 4.28008L16.9455 1.74915C16.2624 1.06595 15.1339 1.02974 14.2726 1.8911L13.4278 2.73591C13.2044 2.9593 12.6298 3.0029 12.0214 3.04907C11.582 3.08239 11.0988 3.11915 10.6069 3.2245L9.00261 3.90661C8.82931 4.03042 8.66656 4.16837 8.51601 4.31903L6.82871 6.00629C6.1309 6.70406 6.1309 7.83945 6.82871 8.53718C7.52711 9.23562 8.66254 9.23433 9.35965 8.53718L11.047 6.84988C11.28 6.6168 11.6574 6.61676 11.8906 6.84988L16.9524 11.9117C17.1851 12.1444 17.1851 12.5228 16.9525 12.7554C16.7198 12.9881 16.3415 12.988 16.1088 12.7554L13.2197 9.86632C12.9868 9.63335 12.6091 9.63335 12.3761 9.86632C12.1431 10.0993 12.1431 10.477 12.3761 10.71L15.2652 13.599C15.4978 13.8317 15.4978 14.2101 15.2651 14.4427C15.0321 14.6758 14.6547 14.6758 14.4215 14.4427L11.5698 11.5909C11.3368 11.358 10.9591 11.358 10.7261 11.5909C10.4932 11.8239 10.4932 12.2016 10.7261 12.4346L13.5779 15.2864C13.8105 15.519 13.8105 15.8974 13.5779 16.13C13.3453 16.3626 12.9669 16.3626 12.7342 16.13L13.2556 17.4939C13.6801 17.4704 14.098 17.2972 14.4215 16.9736C14.7452 16.65 14.9184 16.2322 14.9419 15.8076C15.3829 15.7838 15.7942 15.601 16.1088 15.2864C16.4326 14.9625 16.6059 14.5443 16.6292 14.1195C17.054 14.0962 17.4722 13.923 17.7961 13.5991C18.4939 12.9013 18.4939 11.7659 17.7961 11.0682L17.3274 10.5995L16.4445 9.71648L12.7343 6.00625C12.035 5.30688 10.9028 5.30668 10.2034 6.00625L8.51609 7.69351C8.28293 7.92668 7.90558 7.92668 7.67242 7.69351C7.4398 7.4609 7.4398 7.08246 7.67242 6.84988L9.35972 5.16262C10.1335 4.38883 11.1391 4.31254 12.1116 4.23872C12.9467 4.17536 13.7354 4.11551 14.2714 3.57962L15.1162 2.73477C15.4371 2.41391 15.8321 2.32309 16.1019 2.59278L18.6328 5.12371C18.8654 5.35633 18.8654 5.73477 18.6328 5.96738L17.149 7.45125C16.7939 7.80633 16.7247 8.30125 16.6577 8.77992C16.6134 9.09675 16.5681 9.42031 16.4445 9.71648L17.3274 10.5995C17.6878 10.0284 17.7731 9.41855 17.8393 8.94519C17.8734 8.70132 17.9201 8.36738 17.9926 8.29488Z" fill="#8AD6F0"/>
<path fill-rule="evenodd" clip-rule="evenodd" d="M2.6702 10.1649L2.61056 10.2245C1.91114 10.9239 1.91099 12.056 2.61056 12.7554C2.93442 13.0793 3.35251 13.2526 3.77743 13.2758C3.80067 13.7007 3.97395 14.1189 4.29782 14.4427C4.61247 14.7574 5.02379 14.9403 5.46477 14.964C5.48821 15.3886 5.66149 15.8063 5.98508 16.13C6.30867 16.4536 6.72649 16.6269 7.15106 16.6503C7.17484 17.0913 7.3577 17.5026 7.67234 17.8172C8.23031 18.3752 9.05351 18.4813 9.70968 18.1672L10.2033 18.6609C10.9026 19.3603 12.0348 19.3604 12.7342 18.6609C13.049 18.3462 13.2318 17.9349 13.2556 17.4939L12.7342 16.13L11.047 14.4427C10.7234 14.119 10.3056 13.9458 9.88101 13.9224C9.85722 13.4814 9.67437 13.0701 9.35968 12.7554C9.04504 12.4407 8.63371 12.2579 8.19273 12.2341C8.1693 11.8095 7.99601 11.3918 7.67242 11.0682C7.34859 10.7443 6.93043 10.571 6.50555 10.5478C6.48231 10.1229 6.30906 9.70468 5.98516 9.38085C5.32145 8.71718 4.26204 8.68527 3.55969 9.28421L2.6702 10.1649ZM3.45419 11.0681C3.22102 11.3013 3.22102 11.6786 3.45419 11.9117C3.68676 12.1443 4.06524 12.1443 4.29782 11.9117L5.14149 11.0681C5.37461 10.835 5.37465 10.4576 5.14149 10.2245C4.90872 9.99179 4.53028 9.99199 4.29782 10.2245L3.45419 11.0681ZM5.14149 12.7554C4.90887 12.988 4.90887 13.3664 5.14149 13.599C5.37418 13.8317 5.75258 13.8316 5.98516 13.599L6.82879 12.7554C7.06141 12.5228 7.06141 12.1444 6.82879 11.9118C6.59613 11.6792 6.21785 11.6792 5.98516 11.9118L5.14149 12.7554ZM6.82879 14.4427C6.59617 14.6753 6.59617 15.0537 6.82879 15.2864C7.06141 15.5189 7.43981 15.519 7.67246 15.2864L8.51609 14.4427C8.74926 14.2096 8.74926 13.8323 8.51609 13.5991C8.28344 13.3665 7.90504 13.3665 7.67242 13.5991L6.82879 14.4427ZM9.35968 16.9736L10.2034 16.13C10.4359 15.8974 10.4359 15.5189 10.2033 15.2863C9.97074 15.0538 9.5923 15.0539 9.35968 15.2864L8.51605 16.13C8.28344 16.3626 8.28347 16.741 8.51609 16.9736C8.74922 17.2068 9.12656 17.2067 9.35968 16.9736ZM11.047 17.8173C11.2801 18.0504 11.6575 18.0504 11.8906 17.8173C12.1238 17.5841 12.1238 17.2068 11.8906 16.9737L11.3962 16.4793C11.3089 16.6628 11.1908 16.83 11.047 16.9737L10.6252 17.3955L11.047 17.8173Z" fill="#F8FEFE"/>
<path d="M17.9926 8.29488L19.4765 6.81102C20.1743 6.1132 20.1743 4.97782 19.4765 4.28008L16.9455 1.74915C16.2624 1.06595 15.1339 1.02974 14.2726 1.8911L13.4278 2.73591C13.2044 2.9593 12.6298 3.0029 12.0214 3.04907C11.582 3.08239 11.0988 3.11915 10.6069 3.2245L9.00261 3.90661C8.82931 4.03042 8.66656 4.16837 8.51601 4.31903L6.82871 6.00629C6.1309 6.70406 6.1309 7.83945 6.82871 8.53718C7.52711 9.23562 8.66254 9.23433 9.35965 8.53718L11.047 6.84988C11.28 6.6168 11.6574 6.61676 11.8906 6.84988L16.9524 11.9117L17.3274 10.5995L16.4445 9.71648L12.7343 6.00625C12.035 5.30688 10.9028 5.30668 10.2034 6.00625L8.51609 7.69351C8.28293 7.92668 7.90558 7.92668 7.67242 7.69351C7.4398 7.4609 7.4398 7.08246 7.67242 6.84988L9.35972 5.16262C10.1335 4.38883 11.1391 4.31254 12.1116 4.23872C12.9467 4.17536 13.7354 4.11551 14.2714 3.57962L15.1162 2.73477C15.4371 2.41391 15.8321 2.32309 16.1019 2.59278L18.6328 5.12371C18.8654 5.35633 18.8654 5.73477 18.6328 5.96738L17.149 7.45125C16.7939 7.80633 16.7247 8.30125 16.6577 8.77992C16.6134 9.09675 16.5681 9.42031 16.4445 9.71648L17.3274 10.5995C17.6878 10.0284 17.7731 9.41855 17.8393 8.94519C17.8734 8.70132 17.9201 8.36738 17.9926 8.29488Z" fill="#F8FEFE"/>
</svg>
