<svg width="20" height="20" viewBox="0 0 20 20" fill="none" xmlns="http://www.w3.org/2000/svg">
<path d="M15.6141 9.84935C16.1474 9.24879 16.4957 8.5069 16.6172 7.71297C16.7387 6.91904 16.6282 6.10691 16.2989 5.37435C15.9696 4.64179 15.4356 4.02001 14.7611 3.58387C14.0867 3.14772 13.3006 2.9158 12.4974 2.91602C12.2764 2.91602 12.0644 3.00381 11.9081 3.16009C11.7519 3.31637 11.6641 3.52834 11.6641 3.74935C11.6641 3.97036 11.7519 4.18232 11.9081 4.3386C12.0644 4.49489 12.2764 4.58268 12.4974 4.58268C13.1604 4.58268 13.7963 4.84607 14.2652 5.31492C14.734 5.78376 14.9974 6.41964 14.9974 7.08268C14.9962 7.52038 14.8801 7.9501 14.6608 8.32887C14.4414 8.70763 14.1265 9.02217 13.7474 9.24102C13.6238 9.31228 13.5207 9.41407 13.4477 9.53663C13.3747 9.6592 13.3345 9.79843 13.3307 9.94102C13.3272 10.0825 13.3598 10.2225 13.4254 10.3479C13.4911 10.4733 13.5875 10.5799 13.7057 10.6577L14.0307 10.8744L14.1391 10.9327C15.1436 11.4091 15.991 12.1627 16.5815 13.1046C17.1721 14.0465 17.4812 15.1376 17.4724 16.2494C17.4724 16.4704 17.5602 16.6823 17.7165 16.8386C17.8728 16.9949 18.0847 17.0827 18.3057 17.0827C18.5267 17.0827 18.7387 16.9949 18.895 16.8386C19.0513 16.6823 19.1391 16.4704 19.1391 16.2494C19.1459 14.9705 18.8256 13.7112 18.2086 12.5911C17.5917 11.4709 16.6985 10.5271 15.6141 9.84935Z" fill="#8AD6F0"/>
<path d="M10.2526 10.1827C10.6973 9.79779 11.0539 9.32175 11.2983 8.78687C11.5428 8.25198 11.6693 7.67077 11.6693 7.08268C11.6693 5.97761 11.2303 4.91781 10.4489 4.1364C9.66748 3.355 8.60767 2.91602 7.5026 2.91602C6.39754 2.91602 5.33773 3.355 4.55633 4.1364C3.77492 4.91781 3.33594 5.97761 3.33594 7.08268C3.33593 7.67077 3.46244 8.25198 3.70688 8.78687C3.95131 9.32175 4.30796 9.79779 4.7526 10.1827C3.58605 10.7109 2.59633 11.564 1.90175 12.6398C1.20718 13.7156 0.837164 14.9688 0.835938 16.2493C0.835937 16.4704 0.923735 16.6823 1.08002 16.8386C1.2363 16.9949 1.44826 17.0827 1.66927 17.0827C1.89028 17.0827 2.10225 16.9949 2.25853 16.8386C2.41481 16.6823 2.5026 16.4704 2.5026 16.2493C2.5026 14.9233 3.02939 13.6515 3.96707 12.7138C4.90475 11.7761 6.17652 11.2493 7.5026 11.2493C8.82869 11.2493 10.1005 11.7761 11.0381 12.7138C11.9758 13.6515 12.5026 14.9233 12.5026 16.2493C12.5026 16.4704 12.5904 16.6823 12.7467 16.8386C12.903 16.9949 13.1149 17.0827 13.3359 17.0827C13.557 17.0827 13.7689 16.9949 13.9252 16.8386C14.0815 16.6823 14.1693 16.4704 14.1693 16.2493C14.168 14.9688 13.798 13.7156 13.1035 12.6398C12.4089 11.564 11.4192 10.7109 10.2526 10.1827ZM7.5026 9.58268C7.00815 9.58268 6.5248 9.43606 6.11368 9.16136C5.70256 8.88665 5.38212 8.49621 5.19291 8.03939C5.00369 7.58258 4.95418 7.07991 5.05064 6.59496C5.1471 6.11 5.38521 5.66455 5.73484 5.31492C6.08447 4.96528 6.52993 4.72718 7.01488 4.63072C7.49983 4.53426 8.0025 4.58376 8.45931 4.77298C8.91613 4.9622 9.30657 5.28263 9.58128 5.69376C9.85598 6.10488 10.0026 6.58823 10.0026 7.08268C10.0026 7.74572 9.73921 8.38161 9.27037 8.85045C8.80153 9.31929 8.16565 9.58268 7.5026 9.58268Z" fill="#F8FEFE"/>
</svg>
