<svg width="1920" height="1000" viewBox="0 0 1920 1000" fill="none" xmlns="http://www.w3.org/2000/svg">
<g opacity="0.2">
<g opacity="0.1">
<path d="M1557.67 202.064L1289 470.734L1290.24 471.971L1558.91 203.3L1557.67 202.064Z" fill="#326B98"/>
<path d="M1814.41 458.79L1545.74 727.461L1546.98 728.697L1815.65 460.027L1814.41 458.79Z" fill="#326B98"/>
<path d="M1800.14 444.536L1531.47 713.207L1532.71 714.444L1801.38 445.773L1800.14 444.536Z" fill="#326B98"/>
<path d="M1785.88 430.275L1517.21 698.945L1518.45 700.182L1787.12 431.511L1785.88 430.275Z" fill="#326B98"/>
<path d="M1771.62 416.005L1502.95 684.676L1504.19 685.912L1772.86 417.242L1771.62 416.005Z" fill="#326B98"/>
<path d="M1757.35 401.735L1488.68 670.406L1489.92 671.643L1758.59 402.972L1757.35 401.735Z" fill="#326B98"/>
<path d="M1743.09 387.478L1474.42 656.148L1475.66 657.385L1744.33 388.714L1743.09 387.478Z" fill="#326B98"/>
<path d="M1728.83 373.22L1460.16 641.891L1461.39 643.127L1730.06 374.456L1728.83 373.22Z" fill="#326B98"/>
<path d="M1714.56 358.95L1445.89 627.621L1447.13 628.858L1715.8 360.187L1714.56 358.95Z" fill="#326B98"/>
<path d="M1700.3 344.685L1431.63 613.355L1432.87 614.592L1701.54 345.921L1700.3 344.685Z" fill="#326B98"/>
<path d="M1686.05 330.423L1417.38 599.094L1418.61 600.33L1687.28 331.66L1686.05 330.423Z" fill="#326B98"/>
<path d="M1671.78 316.169L1403.11 584.84L1404.35 586.076L1673.02 317.406L1671.78 316.169Z" fill="#326B98"/>
<path d="M1657.51 301.9L1388.84 570.57L1390.08 571.807L1658.75 303.136L1657.51 301.9Z" fill="#326B98"/>
<path d="M1643.25 287.63L1374.58 556.301L1375.81 557.537L1644.49 288.867L1643.25 287.63Z" fill="#326B98"/>
<path d="M1629 273.372L1360.33 542.043L1361.56 543.28L1630.24 274.609L1629 273.372Z" fill="#326B98"/>
<path d="M1614.72 259.114L1346.05 527.785L1347.28 529.022L1615.95 260.351L1614.72 259.114Z" fill="#326B98"/>
<path d="M1600.45 244.841L1331.78 513.512L1333.02 514.748L1601.69 246.077L1600.45 244.841Z" fill="#326B98"/>
<path d="M1586.2 230.579L1317.53 499.25L1318.77 500.487L1587.44 231.816L1586.2 230.579Z" fill="#326B98"/>
<path d="M1571.94 216.318L1303.27 484.988L1304.5 486.225L1573.17 217.554L1571.94 216.318Z" fill="#326B98"/>
<path d="M1807.27 451.669L1538.6 720.34L1539.84 721.576L1808.51 452.906L1807.27 451.669Z" fill="#417181"/>
<path d="M1793.01 437.396L1524.34 706.066L1525.58 707.303L1794.25 438.632L1793.01 437.396Z" fill="#417181"/>
<path d="M1778.75 423.134L1510.08 691.805L1511.31 693.041L1779.99 424.37L1778.75 423.134Z" fill="#417181"/>
<path d="M1764.49 408.876L1495.82 677.547L1497.06 678.783L1765.73 410.113L1764.49 408.876Z" fill="#417181"/>
<path d="M1750.22 394.618L1481.55 663.289L1482.78 664.526L1751.45 395.855L1750.22 394.618Z" fill="#417181"/>
<path d="M1735.96 380.341L1467.29 649.012L1468.53 650.248L1737.2 381.577L1735.96 380.341Z" fill="#417181"/>
<path d="M1721.7 366.079L1453.03 634.75L1454.27 635.987L1722.94 367.316L1721.7 366.079Z" fill="#417181"/>
<path d="M1707.43 351.825L1438.76 620.496L1439.99 621.733L1708.67 353.062L1707.43 351.825Z" fill="#417181"/>
<path d="M1693.17 337.556L1424.5 606.227L1425.74 607.463L1694.41 338.792L1693.17 337.556Z" fill="#417181"/>
<path d="M1678.91 323.29L1410.23 591.961L1411.47 593.197L1680.14 324.527L1678.91 323.29Z" fill="#417181"/>
<path d="M1664.64 309.028L1395.97 577.699L1397.21 578.936L1665.88 310.265L1664.64 309.028Z" fill="#417181"/>
<path d="M1650.37 294.771L1381.7 563.441L1382.94 564.678L1651.61 296.007L1650.37 294.771Z" fill="#417181"/>
<path d="M1636.12 280.505L1367.45 549.176L1368.69 550.412L1637.36 281.742L1636.12 280.505Z" fill="#417181"/>
<path d="M1621.85 266.235L1353.18 534.906L1354.42 536.143L1623.09 267.472L1621.85 266.235Z" fill="#417181"/>
<path d="M1607.59 251.974L1338.92 520.645L1340.16 521.881L1608.83 253.21L1607.59 251.974Z" fill="#417181"/>
<path d="M1593.33 237.72L1324.66 506.391L1325.89 507.627L1594.56 238.956L1593.33 237.72Z" fill="#417181"/>
<path d="M1579.06 223.45L1310.39 492.121L1311.63 493.358L1580.3 224.687L1579.06 223.45Z" fill="#417181"/>
<path d="M1564.8 209.185L1296.12 477.855L1297.36 479.092L1566.03 210.421L1564.8 209.185Z" fill="#417181"/>
</g>
<g opacity="0.1">
<path d="M1826.67 -66.9989L1558 201.672L1559.24 202.908L1827.91 -65.7623L1826.67 -66.9989Z" fill="#326B98"/>
<path d="M2083.41 189.728L1814.74 458.398L1815.98 459.635L2084.65 190.964L2083.41 189.728Z" fill="#326B98"/>
<path d="M2069.14 175.474L1800.47 444.145L1801.71 445.381L2070.38 176.71L2069.14 175.474Z" fill="#326B98"/>
<path d="M2054.88 161.212L1786.21 429.883L1787.45 431.119L2056.12 162.449L2054.88 161.212Z" fill="#326B98"/>
<path d="M2040.62 146.943L1771.95 415.613L1773.19 416.85L2041.86 148.179L2040.62 146.943Z" fill="#326B98"/>
<path d="M2026.35 132.673L1757.68 401.344L1758.92 402.58L2027.59 133.91L2026.35 132.673Z" fill="#326B98"/>
<path d="M2012.09 118.415L1743.42 387.086L1744.66 388.322L2013.33 119.652L2012.09 118.415Z" fill="#326B98"/>
<path d="M1997.83 104.157L1729.16 372.828L1730.39 374.065L1999.06 105.394L1997.83 104.157Z" fill="#326B98"/>
<path d="M1983.56 89.8878L1714.89 358.559L1716.13 359.795L1984.8 91.1244L1983.56 89.8878Z" fill="#326B98"/>
<path d="M1969.3 75.6222L1700.63 344.293L1701.87 345.53L1970.54 76.8587L1969.3 75.6222Z" fill="#326B98"/>
<path d="M1955.05 61.3605L1686.38 330.031L1687.61 331.268L1956.28 62.597L1955.05 61.3605Z" fill="#326B98"/>
<path d="M1940.78 47.1066L1672.11 315.777L1673.35 317.014L1942.02 48.3431L1940.78 47.1066Z" fill="#326B98"/>
<path d="M1926.51 32.837L1657.84 301.508L1659.08 302.744L1927.75 34.0736L1926.51 32.837Z" fill="#326B98"/>
<path d="M1912.25 18.5675L1643.58 287.238L1644.81 288.475L1913.49 19.8041L1912.25 18.5675Z" fill="#326B98"/>
<path d="M1898 4.30972L1629.33 272.98L1630.56 274.217L1899.24 5.54627L1898 4.30972Z" fill="#326B98"/>
<path d="M1883.72 -9.94809L1615.05 258.723L1616.28 259.959L1884.95 -8.71155L1883.72 -9.94809Z" fill="#326B98"/>
<path d="M1869.45 -24.2216L1600.78 244.449L1602.02 245.686L1870.69 -22.985L1869.45 -24.2216Z" fill="#326B98"/>
<path d="M1855.2 -38.4832L1586.53 230.188L1587.77 231.424L1856.44 -37.2467L1855.2 -38.4832Z" fill="#326B98"/>
<path d="M1840.94 -52.745L1572.27 215.926L1573.5 217.162L1842.17 -51.5084L1840.94 -52.745Z" fill="#326B98"/>
<path d="M2076.27 182.607L1807.6 451.277L1808.84 452.514L2077.51 183.843L2076.27 182.607Z" fill="#417181"/>
<path d="M2062.01 168.333L1793.34 437.004L1794.58 438.24L2063.25 169.57L2062.01 168.333Z" fill="#417181"/>
<path d="M2047.75 154.071L1779.08 422.742L1780.31 423.979L2048.99 155.308L2047.75 154.071Z" fill="#417181"/>
<path d="M2033.49 139.814L1764.82 408.484L1766.06 409.721L2034.73 141.05L2033.49 139.814Z" fill="#417181"/>
<path d="M2019.22 125.556L1750.55 394.227L1751.78 395.463L2020.45 126.792L2019.22 125.556Z" fill="#417181"/>
<path d="M2004.96 111.278L1736.29 379.949L1737.53 381.186L2006.2 112.515L2004.96 111.278Z" fill="#417181"/>
<path d="M1990.7 97.0167L1722.03 365.688L1723.27 366.924L1991.94 98.2533L1990.7 97.0167Z" fill="#417181"/>
<path d="M1976.43 82.7628L1707.76 351.434L1708.99 352.67L1977.67 83.9994L1976.43 82.7628Z" fill="#417181"/>
<path d="M1962.17 68.4933L1693.5 337.164L1694.74 338.401L1963.41 69.7298L1962.17 68.4933Z" fill="#417181"/>
<path d="M1947.91 54.2277L1679.23 322.898L1680.47 324.135L1949.14 55.4642L1947.91 54.2277Z" fill="#417181"/>
<path d="M1933.64 39.9659L1664.97 308.637L1666.21 309.873L1934.88 41.2025L1933.64 39.9659Z" fill="#417181"/>
<path d="M1919.37 25.7081L1650.7 294.379L1651.94 295.615L1920.61 26.9447L1919.37 25.7081Z" fill="#417181"/>
<path d="M1905.12 11.4425L1636.45 280.113L1637.69 281.35L1906.36 12.6791L1905.12 11.4425Z" fill="#417181"/>
<path d="M1890.85 -2.82702L1622.18 265.844L1623.42 267.08L1892.09 -1.59047L1890.85 -2.82702Z" fill="#417181"/>
<path d="M1876.59 -17.0887L1607.92 251.582L1609.16 252.819L1877.83 -15.8522L1876.59 -17.0887Z" fill="#417181"/>
<path d="M1862.33 -31.3426L1593.66 237.328L1594.89 238.565L1863.56 -30.1061L1862.33 -31.3426Z" fill="#417181"/>
<path d="M1848.06 -45.6122L1579.39 223.059L1580.63 224.295L1849.3 -44.3756L1848.06 -45.6122Z" fill="#417181"/>
<path d="M1833.8 -59.8778L1565.12 208.793L1566.36 210.03L1835.03 -58.6412L1833.8 -59.8778Z" fill="#417181"/>
</g>
<g opacity="0.1">
<path d="M1199.67 37.0636L931 305.734L932.237 306.971L1200.91 38.3002L1199.67 37.0636Z" fill="#326B98"/>
<path d="M1456.41 293.79L1187.74 562.461L1188.98 563.697L1457.65 295.027L1456.41 293.79Z" fill="#326B98"/>
<path d="M1442.14 279.536L1173.47 548.207L1174.71 549.444L1443.38 280.773L1442.14 279.536Z" fill="#326B98"/>
<path d="M1427.88 265.275L1159.21 533.945L1160.45 535.182L1429.12 266.511L1427.88 265.275Z" fill="#326B98"/>
<path d="M1413.62 251.005L1144.95 519.676L1146.19 520.912L1414.86 252.242L1413.62 251.005Z" fill="#326B98"/>
<path d="M1399.35 236.735L1130.68 505.406L1131.92 506.643L1400.59 237.972L1399.35 236.735Z" fill="#326B98"/>
<path d="M1385.09 222.478L1116.42 491.148L1117.66 492.385L1386.33 223.714L1385.09 222.478Z" fill="#326B98"/>
<path d="M1370.83 208.22L1102.16 476.891L1103.39 478.127L1372.06 209.456L1370.83 208.22Z" fill="#326B98"/>
<path d="M1356.56 193.95L1087.89 462.621L1089.13 463.858L1357.8 195.187L1356.56 193.95Z" fill="#326B98"/>
<path d="M1342.3 179.685L1073.63 448.355L1074.87 449.592L1343.54 180.921L1342.3 179.685Z" fill="#326B98"/>
<path d="M1328.05 165.423L1059.38 434.094L1060.61 435.33L1329.28 166.66L1328.05 165.423Z" fill="#326B98"/>
<path d="M1313.78 151.169L1045.11 419.84L1046.35 421.076L1315.02 152.406L1313.78 151.169Z" fill="#326B98"/>
<path d="M1299.51 136.9L1030.84 405.57L1032.08 406.807L1300.75 138.136L1299.51 136.9Z" fill="#326B98"/>
<path d="M1285.25 122.63L1016.58 391.301L1017.81 392.537L1286.49 123.867L1285.25 122.63Z" fill="#326B98"/>
<path d="M1271 108.372L1002.33 377.043L1003.56 378.28L1272.24 109.609L1271 108.372Z" fill="#326B98"/>
<path d="M1256.72 94.1144L988.047 362.785L989.283 364.022L1257.95 95.351L1256.72 94.1144Z" fill="#326B98"/>
<path d="M1242.45 79.8409L973.781 348.512L975.018 349.748L1243.69 81.0775L1242.45 79.8409Z" fill="#326B98"/>
<path d="M1228.2 65.5793L959.531 334.25L960.768 335.487L1229.44 66.8158L1228.2 65.5793Z" fill="#326B98"/>
<path d="M1213.94 51.3175L945.266 319.988L946.502 321.225L1215.17 52.5541L1213.94 51.3175Z" fill="#326B98"/>
<path d="M1449.27 286.669L1180.6 555.34L1181.84 556.576L1450.51 287.906L1449.27 286.669Z" fill="#417181"/>
<path d="M1435.01 272.396L1166.34 541.066L1167.58 542.303L1436.25 273.632L1435.01 272.396Z" fill="#417181"/>
<path d="M1420.75 258.134L1152.08 526.805L1153.31 528.041L1421.99 259.37L1420.75 258.134Z" fill="#417181"/>
<path d="M1406.49 243.876L1137.82 512.547L1139.06 513.783L1407.73 245.113L1406.49 243.876Z" fill="#417181"/>
<path d="M1392.22 229.618L1123.55 498.289L1124.78 499.526L1393.45 230.855L1392.22 229.618Z" fill="#417181"/>
<path d="M1377.96 215.341L1109.29 484.012L1110.53 485.248L1379.2 216.577L1377.96 215.341Z" fill="#417181"/>
<path d="M1363.7 201.079L1095.03 469.75L1096.27 470.987L1364.94 202.316L1363.7 201.079Z" fill="#417181"/>
<path d="M1349.43 186.825L1080.76 455.496L1081.99 456.733L1350.67 188.062L1349.43 186.825Z" fill="#417181"/>
<path d="M1335.17 172.556L1066.5 441.227L1067.74 442.463L1336.41 173.792L1335.17 172.556Z" fill="#417181"/>
<path d="M1320.91 158.29L1052.23 426.961L1053.47 428.197L1322.14 159.527L1320.91 158.29Z" fill="#417181"/>
<path d="M1306.64 144.028L1037.97 412.699L1039.21 413.936L1307.88 145.265L1306.64 144.028Z" fill="#417181"/>
<path d="M1292.37 129.771L1023.7 398.441L1024.94 399.678L1293.61 131.007L1292.37 129.771Z" fill="#417181"/>
<path d="M1278.12 115.505L1009.45 384.176L1010.69 385.412L1279.36 116.742L1278.12 115.505Z" fill="#417181"/>
<path d="M1263.85 101.235L995.18 369.906L996.416 371.143L1265.09 102.472L1263.85 101.235Z" fill="#417181"/>
<path d="M1249.59 86.9738L980.922 355.645L982.158 356.881L1250.83 88.2103L1249.59 86.9738Z" fill="#417181"/>
<path d="M1235.33 72.7199L966.656 341.391L967.893 342.627L1236.56 73.9564L1235.33 72.7199Z" fill="#417181"/>
<path d="M1221.06 58.4503L952.391 327.121L953.627 328.358L1222.3 59.6869L1221.06 58.4503Z" fill="#417181"/>
<path d="M1206.8 44.1847L938.125 312.855L939.362 314.092L1208.03 45.4213L1206.8 44.1847Z" fill="#417181"/>
</g>
<g opacity="0.1">
<path d="M1468.67 -231.999L1200 36.6719L1201.24 37.9084L1469.91 -230.762L1468.67 -231.999Z" fill="#326B98"/>
<path d="M1725.41 24.7277L1456.74 293.398L1457.98 294.635L1726.65 25.9642L1725.41 24.7277Z" fill="#326B98"/>
<path d="M1711.14 10.4738L1442.47 279.145L1443.71 280.381L1712.38 11.7103L1711.14 10.4738Z" fill="#326B98"/>
<path d="M1696.88 -3.78796L1428.21 264.883L1429.45 266.119L1698.12 -2.55141L1696.88 -3.78796Z" fill="#326B98"/>
<path d="M1682.62 -18.0575L1413.95 250.613L1415.19 251.85L1683.86 -16.8209L1682.62 -18.0575Z" fill="#326B98"/>
<path d="M1668.35 -32.327L1399.68 236.344L1400.92 237.58L1669.59 -31.0905L1668.35 -32.327Z" fill="#326B98"/>
<path d="M1654.09 -46.5848L1385.42 222.086L1386.66 223.322L1655.33 -45.3483L1654.09 -46.5848Z" fill="#326B98"/>
<path d="M1639.83 -60.8426L1371.16 207.828L1372.39 209.065L1641.06 -59.6061L1639.83 -60.8426Z" fill="#326B98"/>
<path d="M1625.56 -75.1122L1356.89 193.559L1358.13 194.795L1626.8 -73.8756L1625.56 -75.1122Z" fill="#326B98"/>
<path d="M1611.3 -89.3778L1342.63 179.293L1343.87 180.53L1612.54 -88.1413L1611.3 -89.3778Z" fill="#326B98"/>
<path d="M1597.05 -103.639L1328.38 165.031L1329.61 166.268L1598.28 -102.403L1597.05 -103.639Z" fill="#326B98"/>
<path d="M1582.78 -117.893L1314.11 150.777L1315.35 152.014L1584.02 -116.657L1582.78 -117.893Z" fill="#326B98"/>
<path d="M1568.51 -132.163L1299.84 136.508L1301.08 137.744L1569.75 -130.926L1568.51 -132.163Z" fill="#326B98"/>
<path d="M1554.25 -146.432L1285.58 122.238L1286.81 123.475L1555.49 -145.196L1554.25 -146.432Z" fill="#326B98"/>
<path d="M1540 -160.69L1271.33 107.98L1272.56 109.217L1541.24 -159.454L1540 -160.69Z" fill="#326B98"/>
<path d="M1525.72 -174.948L1257.05 93.7227L1258.28 94.9592L1526.95 -173.712L1525.72 -174.948Z" fill="#326B98"/>
<path d="M1511.45 -189.222L1242.78 79.4492L1244.02 80.6858L1512.69 -187.985L1511.45 -189.222Z" fill="#326B98"/>
<path d="M1497.2 -203.483L1228.53 65.1875L1229.77 66.424L1498.44 -202.247L1497.2 -203.483Z" fill="#326B98"/>
<path d="M1482.94 -217.745L1214.27 50.9258L1215.5 52.1623L1484.17 -216.508L1482.94 -217.745Z" fill="#326B98"/>
<path d="M1718.27 17.6066L1449.6 286.277L1450.84 287.514L1719.51 18.8431L1718.27 17.6066Z" fill="#417181"/>
<path d="M1704.01 3.33313L1435.34 272.004L1436.58 273.24L1705.25 4.56968L1704.01 3.33313Z" fill="#417181"/>
<path d="M1689.75 -10.9286L1421.08 257.742L1422.31 258.979L1690.99 -9.69204L1689.75 -10.9286Z" fill="#417181"/>
<path d="M1675.49 -25.1864L1406.82 243.484L1408.06 244.721L1676.73 -23.9498L1675.49 -25.1864Z" fill="#417181"/>
<path d="M1661.22 -39.4442L1392.55 229.227L1393.78 230.463L1662.45 -38.2077L1661.22 -39.4442Z" fill="#417181"/>
<path d="M1646.96 -53.7216L1378.29 214.949L1379.53 216.186L1648.2 -52.485L1646.96 -53.7216Z" fill="#417181"/>
<path d="M1632.7 -67.9833L1364.03 200.688L1365.27 201.924L1633.94 -66.7467L1632.7 -67.9833Z" fill="#417181"/>
<path d="M1618.43 -82.2372L1349.76 186.434L1350.99 187.67L1619.67 -81.0006L1618.43 -82.2372Z" fill="#417181"/>
<path d="M1604.17 -96.5067L1335.5 172.164L1336.74 173.401L1605.41 -95.2702L1604.17 -96.5067Z" fill="#417181"/>
<path d="M1589.91 -110.772L1321.23 157.898L1322.47 159.135L1591.14 -109.536L1589.91 -110.772Z" fill="#417181"/>
<path d="M1575.64 -125.034L1306.97 143.637L1308.21 144.873L1576.88 -123.798L1575.64 -125.034Z" fill="#417181"/>
<path d="M1561.37 -139.292L1292.7 129.379L1293.94 130.615L1562.61 -138.055L1561.37 -139.292Z" fill="#417181"/>
<path d="M1547.12 -153.557L1278.45 115.113L1279.69 116.35L1548.36 -152.321L1547.12 -153.557Z" fill="#417181"/>
<path d="M1532.85 -167.827L1264.18 100.844L1265.42 102.08L1534.09 -166.59L1532.85 -167.827Z" fill="#417181"/>
<path d="M1518.59 -182.089L1249.92 86.582L1251.16 87.8186L1519.83 -180.852L1518.59 -182.089Z" fill="#417181"/>
<path d="M1504.33 -196.343L1235.66 72.3281L1236.89 73.5647L1505.56 -195.106L1504.33 -196.343Z" fill="#417181"/>
<path d="M1490.06 -210.612L1221.39 58.0586L1222.63 59.2951L1491.3 -209.376L1490.06 -210.612Z" fill="#417181"/>
<path d="M1475.8 -224.878L1207.12 43.793L1208.36 45.0295L1477.03 -223.641L1475.8 -224.878Z" fill="#417181"/>
</g>
<g opacity="0.1">
<path d="M812.671 -101.936L544 166.734L545.237 167.971L813.907 -100.7L812.671 -101.936Z" fill="#326B98"/>
<path d="M1069.41 154.79L800.742 423.461L801.979 424.697L1070.65 156.027L1069.41 154.79Z" fill="#326B98"/>
<path d="M1055.14 140.536L786.469 409.207L787.705 410.444L1056.38 141.773L1055.14 140.536Z" fill="#326B98"/>
<path d="M1040.88 126.275L772.211 394.945L773.447 396.182L1042.12 127.511L1040.88 126.275Z" fill="#326B98"/>
<path d="M1026.62 112.005L757.953 380.676L759.19 381.912L1027.86 113.242L1026.62 112.005Z" fill="#326B98"/>
<path d="M1012.35 97.7355L743.68 366.406L744.916 367.643L1013.59 98.972L1012.35 97.7355Z" fill="#326B98"/>
<path d="M998.093 83.4777L729.422 352.148L730.658 353.385L999.329 84.7142L998.093 83.4777Z" fill="#326B98"/>
<path d="M983.827 69.2199L715.156 337.891L716.393 339.127L985.064 70.4564L983.827 69.2199Z" fill="#326B98"/>
<path d="M969.561 54.9503L700.891 323.621L702.127 324.858L970.798 56.1869L969.561 54.9503Z" fill="#326B98"/>
<path d="M955.304 40.6847L686.633 309.355L687.869 310.592L956.54 41.9212L955.304 40.6847Z" fill="#326B98"/>
<path d="M941.046 26.423L672.375 295.094L673.612 296.33L942.282 27.6595L941.046 26.423Z" fill="#326B98"/>
<path d="M926.78 12.1691L658.109 280.84L659.346 282.076L928.017 13.4056L926.78 12.1691Z" fill="#326B98"/>
<path d="M912.515 -2.10046L643.844 266.57L645.08 267.807L913.751 -0.863912L912.515 -2.10046Z" fill="#326B98"/>
<path d="M898.249 -16.37L629.578 252.301L630.815 253.537L899.485 -15.1334L898.249 -16.37Z" fill="#326B98"/>
<path d="M883.999 -30.6278L615.328 238.043L616.565 239.28L885.235 -29.3912L883.999 -30.6278Z" fill="#326B98"/>
<path d="M869.718 -44.8856L601.047 223.785L602.283 225.022L870.954 -43.649L869.718 -44.8856Z" fill="#326B98"/>
<path d="M855.452 -59.1591L586.781 209.512L588.018 210.748L856.689 -57.9225L855.452 -59.1591Z" fill="#326B98"/>
<path d="M841.202 -73.4207L572.531 195.25L573.768 196.487L842.439 -72.1842L841.202 -73.4207Z" fill="#326B98"/>
<path d="M826.936 -87.6825L558.266 180.988L559.502 182.225L828.173 -86.4459L826.936 -87.6825Z" fill="#326B98"/>
<path d="M1062.27 147.669L793.602 416.34L794.838 417.576L1063.51 148.906L1062.27 147.669Z" fill="#417181"/>
<path d="M1048.01 133.396L779.344 402.066L780.58 403.303L1049.25 134.632L1048.01 133.396Z" fill="#417181"/>
<path d="M1033.75 119.134L765.078 387.805L766.315 389.041L1034.99 120.37L1033.75 119.134Z" fill="#417181"/>
<path d="M1019.49 104.876L750.82 373.547L752.057 374.783L1020.73 106.113L1019.49 104.876Z" fill="#417181"/>
<path d="M1005.22 90.6183L736.547 359.289L737.783 360.526L1006.45 91.8548L1005.22 90.6183Z" fill="#417181"/>
<path d="M990.96 76.3409L722.289 345.012L723.526 346.248L992.196 77.5775L990.96 76.3409Z" fill="#417181"/>
<path d="M976.702 62.0792L708.031 330.75L709.268 331.987L977.939 63.3158L976.702 62.0792Z" fill="#417181"/>
<path d="M962.429 47.8253L693.758 316.496L694.994 317.733L963.665 49.0619L962.429 47.8253Z" fill="#417181"/>
<path d="M948.171 33.5558L679.5 302.227L680.737 303.463L949.407 34.7923L948.171 33.5558Z" fill="#417181"/>
<path d="M933.905 19.2902L665.234 287.961L666.471 289.197L935.142 20.5267L933.905 19.2902Z" fill="#417181"/>
<path d="M919.64 5.02845L650.969 273.699L652.205 274.936L920.876 6.26499L919.64 5.02845Z" fill="#417181"/>
<path d="M905.374 -9.22937L636.703 259.441L637.94 260.678L906.61 -7.99282L905.374 -9.22937Z" fill="#417181"/>
<path d="M891.124 -23.495L622.453 245.176L623.69 246.412L892.36 -22.2584L891.124 -23.495Z" fill="#417181"/>
<path d="M876.85 -37.7645L608.18 230.906L609.416 232.143L878.087 -36.528L876.85 -37.7645Z" fill="#417181"/>
<path d="M862.593 -52.0262L593.922 216.645L595.158 217.881L863.829 -50.7897L862.593 -52.0262Z" fill="#417181"/>
<path d="M848.327 -66.2801L579.656 202.391L580.893 203.627L849.564 -65.0436L848.327 -66.2801Z" fill="#417181"/>
<path d="M834.061 -80.5497L565.391 188.121L566.627 189.358L835.298 -79.3131L834.061 -80.5497Z" fill="#417181"/>
<path d="M819.796 -94.8153L551.125 173.855L552.362 175.092L821.032 -93.5787L819.796 -94.8153Z" fill="#417181"/>
</g>
<g opacity="0.1">
<path d="M1338.41 -114.272L1069.74 154.398L1070.98 155.635L1339.65 -113.036L1338.41 -114.272Z" fill="#326B98"/>
<path d="M1324.14 -128.526L1055.47 140.145L1056.71 141.381L1325.38 -127.29L1324.14 -128.526Z" fill="#326B98"/>
<path d="M1309.88 -142.788L1041.21 125.883L1042.45 127.119L1311.12 -141.551L1309.88 -142.788Z" fill="#326B98"/>
<path d="M1295.62 -157.057L1026.95 111.613L1028.19 112.85L1296.86 -155.821L1295.62 -157.057Z" fill="#326B98"/>
<path d="M1281.35 -171.327L1012.68 97.3438L1013.92 98.5803L1282.59 -170.09L1281.35 -171.327Z" fill="#326B98"/>
<path d="M1267.09 -185.585L998.422 83.0859L999.658 84.3225L1268.33 -184.348L1267.09 -185.585Z" fill="#326B98"/>
<path d="M1252.83 -199.843L984.156 68.8281L985.393 70.0647L1254.06 -198.606L1252.83 -199.843Z" fill="#326B98"/>
<path d="M1238.56 -214.112L969.891 54.5586L971.127 55.7951L1239.8 -212.876L1238.56 -214.112Z" fill="#326B98"/>
<path d="M1224.3 -228.378L955.633 40.293L956.869 41.5295L1225.54 -227.141L1224.3 -228.378Z" fill="#326B98"/>
<path d="M1210.05 -242.639L941.375 26.0312L942.612 27.2678L1211.28 -241.403L1210.05 -242.639Z" fill="#326B98"/>
<path d="M1195.78 -256.893L927.109 11.7773L928.346 13.0139L1197.02 -255.657L1195.78 -256.893Z" fill="#326B98"/>
<path d="M1331.27 -121.393L1062.6 147.277L1063.84 148.514L1332.51 -120.157L1331.27 -121.393Z" fill="#417181"/>
<path d="M1317.01 -135.667L1048.34 133.004L1049.58 134.24L1318.25 -134.43L1317.01 -135.667Z" fill="#417181"/>
<path d="M1302.75 -149.929L1034.08 118.742L1035.31 119.979L1303.99 -148.692L1302.75 -149.929Z" fill="#417181"/>
<path d="M1288.49 -164.186L1019.82 104.484L1021.06 105.721L1289.73 -162.95L1288.49 -164.186Z" fill="#417181"/>
<path d="M1274.22 -178.444L1005.55 90.2266L1006.78 91.4631L1275.45 -177.208L1274.22 -178.444Z" fill="#417181"/>
<path d="M1259.96 -192.722L991.289 75.9492L992.526 77.1858L1261.2 -191.485L1259.96 -192.722Z" fill="#417181"/>
<path d="M1245.7 -206.983L977.031 61.6875L978.268 62.924L1246.94 -205.747L1245.7 -206.983Z" fill="#417181"/>
<path d="M1231.43 -221.237L962.758 47.4336L963.994 48.6701L1232.67 -220.001L1231.43 -221.237Z" fill="#417181"/>
<path d="M1217.17 -235.507L948.5 33.1641L949.737 34.4006L1218.41 -234.27L1217.17 -235.507Z" fill="#417181"/>
<path d="M1202.91 -249.772L934.234 18.8984L935.471 20.135L1204.14 -248.536L1202.91 -249.772Z" fill="#417181"/>
<path d="M1188.64 -264.034L919.969 4.63672L921.205 5.87327L1189.88 -262.798L1188.64 -264.034Z" fill="#417181"/>
</g>
<g opacity="0.1">
<path d="M326.671 -144.936L58 123.734L59.2365 124.971L327.907 -143.7L326.671 -144.936Z" fill="#326B98"/>
<path d="M583.413 111.79L314.742 380.461L315.979 381.697L584.649 113.027L583.413 111.79Z" fill="#326B98"/>
<path d="M569.139 97.5363L300.469 366.207L301.705 367.444L570.376 98.7728L569.139 97.5363Z" fill="#326B98"/>
<path d="M554.882 83.2745L286.211 351.945L287.447 353.182L556.118 84.5111L554.882 83.2745Z" fill="#326B98"/>
<path d="M540.624 69.005L271.953 337.676L273.19 338.912L541.86 70.2416L540.624 69.005Z" fill="#326B98"/>
<path d="M526.35 54.7355L257.68 323.406L258.916 324.643L527.587 55.972L526.35 54.7355Z" fill="#326B98"/>
<path d="M512.093 40.4777L243.422 309.148L244.658 310.385L513.329 41.7142L512.093 40.4777Z" fill="#326B98"/>
<path d="M497.827 26.2199L229.156 294.891L230.393 296.127L499.064 27.4564L497.827 26.2199Z" fill="#326B98"/>
<path d="M483.561 11.9503L214.891 280.621L216.127 281.858L484.798 13.1869L483.561 11.9503Z" fill="#326B98"/>
<path d="M469.304 -2.3153L200.633 266.355L201.869 267.592L470.54 -1.07876L469.304 -2.3153Z" fill="#326B98"/>
<path d="M455.046 -16.577L186.375 252.094L187.612 253.33L456.282 -15.3405L455.046 -16.577Z" fill="#326B98"/>
<path d="M440.78 -30.8309L172.109 237.84L173.346 239.076L442.017 -29.5944L440.78 -30.8309Z" fill="#326B98"/>
<path d="M426.515 -45.1005L157.844 223.57L159.08 224.807L427.751 -43.8639L426.515 -45.1005Z" fill="#326B98"/>
<path d="M412.249 -59.37L143.578 209.301L144.815 210.537L413.485 -58.1334L412.249 -59.37Z" fill="#326B98"/>
<path d="M397.999 -73.6278L129.328 195.043L130.565 196.28L399.235 -72.3912L397.999 -73.6278Z" fill="#326B98"/>
<path d="M383.718 -87.8856L115.047 180.785L116.283 182.022L384.954 -86.649L383.718 -87.8856Z" fill="#326B98"/>
<path d="M369.452 -102.159L100.781 166.512L102.018 167.748L370.689 -100.923L369.452 -102.159Z" fill="#326B98"/>
<path d="M355.202 -116.421L86.5312 152.25L87.7678 153.487L356.439 -115.184L355.202 -116.421Z" fill="#326B98"/>
<path d="M340.936 -130.682L72.2656 137.988L73.5022 139.225L342.173 -129.446L340.936 -130.682Z" fill="#326B98"/>
<path d="M576.272 104.669L307.602 373.34L308.838 374.576L577.509 105.906L576.272 104.669Z" fill="#417181"/>
<path d="M562.015 90.3956L293.344 359.066L294.58 360.303L563.251 91.6322L562.015 90.3956Z" fill="#417181"/>
<path d="M547.749 76.1339L279.078 344.805L280.315 346.041L548.985 77.3705L547.749 76.1339Z" fill="#417181"/>
<path d="M533.491 61.8761L264.82 330.547L266.057 331.783L534.728 63.1127L533.491 61.8761Z" fill="#417181"/>
<path d="M519.218 47.6183L250.547 316.289L251.783 317.526L520.454 48.8548L519.218 47.6183Z" fill="#417181"/>
<path d="M504.96 33.3409L236.289 302.012L237.526 303.248L506.196 34.5775L504.96 33.3409Z" fill="#417181"/>
<path d="M490.702 19.0792L222.031 287.75L223.268 288.987L491.939 20.3158L490.702 19.0792Z" fill="#417181"/>
<path d="M476.429 4.82532L207.758 273.496L208.994 274.733L477.665 6.06187L476.429 4.82532Z" fill="#417181"/>
<path d="M462.171 -9.44421L193.5 259.227L194.737 260.463L463.407 -8.20766L462.171 -9.44421Z" fill="#417181"/>
<path d="M447.905 -23.7098L179.234 244.961L180.471 246.197L449.142 -22.4733L447.905 -23.7098Z" fill="#417181"/>
<path d="M433.64 -37.9716L164.969 230.699L166.205 231.936L434.876 -36.735L433.64 -37.9716Z" fill="#417181"/>
<path d="M419.374 -52.2294L150.703 216.441L151.94 217.678L420.61 -50.9928L419.374 -52.2294Z" fill="#417181"/>
<path d="M405.124 -66.495L136.453 202.176L137.69 203.412L406.36 -65.2584L405.124 -66.495Z" fill="#417181"/>
<path d="M390.85 -80.7645L122.18 187.906L123.416 189.143L392.087 -79.528L390.85 -80.7645Z" fill="#417181"/>
<path d="M376.593 -95.0262L107.922 173.645L109.158 174.881L377.829 -93.7897L376.593 -95.0262Z" fill="#417181"/>
<path d="M362.327 -109.28L93.6562 159.391L94.8928 160.627L363.564 -108.044L362.327 -109.28Z" fill="#417181"/>
<path d="M348.061 -123.55L79.3906 145.121L80.6272 146.358L349.298 -122.313L348.061 -123.55Z" fill="#417181"/>
<path d="M333.796 -137.815L65.125 130.855L66.3615 132.092L335.032 -136.579L333.796 -137.815Z" fill="#417181"/>
</g>
<g opacity="0.1">
<path d="M852.413 -157.272L583.742 111.398L584.979 112.635L853.649 -156.036L852.413 -157.272Z" fill="#326B98"/>
<path d="M838.139 -171.526L569.469 97.1445L570.705 98.3811L839.376 -170.29L838.139 -171.526Z" fill="#326B98"/>
<path d="M823.882 -185.788L555.211 82.8828L556.447 84.1194L825.118 -184.551L823.882 -185.788Z" fill="#326B98"/>
<path d="M809.624 -200.057L540.953 68.6133L542.19 69.8498L810.86 -198.821L809.624 -200.057Z" fill="#326B98"/>
<path d="M795.35 -214.327L526.68 54.3438L527.916 55.5803L796.587 -213.09L795.35 -214.327Z" fill="#326B98"/>
<path d="M781.093 -228.585L512.422 40.0859L513.658 41.3225L782.329 -227.348L781.093 -228.585Z" fill="#326B98"/>
<path d="M766.827 -242.843L498.156 25.8281L499.393 27.0647L768.064 -241.606L766.827 -242.843Z" fill="#326B98"/>
<path d="M752.561 -257.112L483.891 11.5586L485.127 12.7951L753.798 -255.876L752.561 -257.112Z" fill="#326B98"/>
<path d="M845.272 -164.393L576.602 104.277L577.838 105.514L846.509 -163.157L845.272 -164.393Z" fill="#417181"/>
<path d="M831.015 -178.667L562.344 90.0039L563.58 91.2405L832.251 -177.43L831.015 -178.667Z" fill="#417181"/>
<path d="M816.749 -192.929L548.078 75.7422L549.315 76.9787L817.985 -191.692L816.749 -192.929Z" fill="#417181"/>
<path d="M802.491 -207.186L533.82 61.4844L535.057 62.7209L803.728 -205.95L802.491 -207.186Z" fill="#417181"/>
<path d="M788.218 -221.444L519.547 47.2266L520.783 48.4631L789.454 -220.208L788.218 -221.444Z" fill="#417181"/>
<path d="M773.96 -235.722L505.289 32.9492L506.526 34.1858L775.196 -234.485L773.96 -235.722Z" fill="#417181"/>
<path d="M759.702 -249.983L491.031 18.6875L492.268 19.924L760.939 -248.747L759.702 -249.983Z" fill="#417181"/>
<path d="M745.429 -264.237L476.758 4.43359L477.994 5.67014L746.665 -263.001L745.429 -264.237Z" fill="#417181"/>
</g>
<g opacity="0.1">
<path d="M1955.67 336.064L1687 604.734L1688.24 605.971L1956.91 337.3L1955.67 336.064Z" fill="#326B98"/>
<path d="M2183.88 564.275L1915.21 832.945L1916.45 834.182L2185.12 565.511L2183.88 564.275Z" fill="#326B98"/>
<path d="M2169.62 550.005L1900.95 818.676L1902.19 819.912L2170.86 551.242L2169.62 550.005Z" fill="#326B98"/>
<path d="M2155.35 535.735L1886.68 804.406L1887.92 805.643L2156.59 536.972L2155.35 535.735Z" fill="#326B98"/>
<path d="M2141.09 521.478L1872.42 790.148L1873.66 791.385L2142.33 522.714L2141.09 521.478Z" fill="#326B98"/>
<path d="M2126.83 507.22L1858.16 775.891L1859.39 777.127L2128.06 508.456L2126.83 507.22Z" fill="#326B98"/>
<path d="M2112.56 492.95L1843.89 761.621L1845.13 762.858L2113.8 494.187L2112.56 492.95Z" fill="#326B98"/>
<path d="M2098.3 478.685L1829.63 747.355L1830.87 748.592L2099.54 479.921L2098.3 478.685Z" fill="#326B98"/>
<path d="M2084.05 464.423L1815.38 733.094L1816.61 734.33L2085.28 465.66L2084.05 464.423Z" fill="#326B98"/>
<path d="M2069.78 450.169L1801.11 718.84L1802.35 720.076L2071.02 451.406L2069.78 450.169Z" fill="#326B98"/>
<path d="M2055.51 435.9L1786.84 704.57L1788.08 705.807L2056.75 437.136L2055.51 435.9Z" fill="#326B98"/>
<path d="M2041.25 421.63L1772.58 690.301L1773.81 691.537L2042.49 422.867L2041.25 421.63Z" fill="#326B98"/>
<path d="M2027 407.372L1758.33 676.043L1759.56 677.28L2028.24 408.609L2027 407.372Z" fill="#326B98"/>
<path d="M2012.72 393.114L1744.05 661.785L1745.28 663.022L2013.95 394.351L2012.72 393.114Z" fill="#326B98"/>
<path d="M1998.45 378.841L1729.78 647.512L1731.02 648.748L1999.69 380.077L1998.45 378.841Z" fill="#326B98"/>
<path d="M1984.2 364.579L1715.53 633.25L1716.77 634.487L1985.44 365.816L1984.2 364.579Z" fill="#326B98"/>
<path d="M1969.94 350.318L1701.27 618.988L1702.5 620.225L1971.17 351.554L1969.94 350.318Z" fill="#326B98"/>
<path d="M2176.75 557.134L1908.08 825.805L1909.31 827.041L2177.99 558.37L2176.75 557.134Z" fill="#417181"/>
<path d="M2162.49 542.876L1893.82 811.547L1895.06 812.783L2163.73 544.113L2162.49 542.876Z" fill="#417181"/>
<path d="M2148.22 528.618L1879.55 797.289L1880.78 798.526L2149.45 529.855L2148.22 528.618Z" fill="#417181"/>
<path d="M2133.96 514.341L1865.29 783.012L1866.53 784.248L2135.2 515.577L2133.96 514.341Z" fill="#417181"/>
<path d="M2119.7 500.079L1851.03 768.75L1852.27 769.987L2120.94 501.316L2119.7 500.079Z" fill="#417181"/>
<path d="M2105.43 485.825L1836.76 754.496L1837.99 755.733L2106.67 487.062L2105.43 485.825Z" fill="#417181"/>
<path d="M2091.17 471.556L1822.5 740.227L1823.74 741.463L2092.41 472.792L2091.17 471.556Z" fill="#417181"/>
<path d="M2076.91 457.29L1808.23 725.961L1809.47 727.197L2078.14 458.527L2076.91 457.29Z" fill="#417181"/>
<path d="M2062.64 443.028L1793.97 711.699L1795.21 712.936L2063.88 444.265L2062.64 443.028Z" fill="#417181"/>
<path d="M2048.37 428.771L1779.7 697.441L1780.94 698.678L2049.61 430.007L2048.37 428.771Z" fill="#417181"/>
<path d="M2034.12 414.505L1765.45 683.176L1766.69 684.412L2035.36 415.742L2034.12 414.505Z" fill="#417181"/>
<path d="M2019.85 400.235L1751.18 668.906L1752.42 670.143L2021.09 401.472L2019.85 400.235Z" fill="#417181"/>
<path d="M2005.59 385.974L1736.92 654.645L1738.16 655.881L2006.83 387.21L2005.59 385.974Z" fill="#417181"/>
<path d="M1991.33 371.72L1722.66 640.391L1723.89 641.627L1992.56 372.956L1991.33 371.72Z" fill="#417181"/>
<path d="M1977.06 357.45L1708.39 626.121L1709.63 627.358L1978.3 358.687L1977.06 357.45Z" fill="#417181"/>
<path d="M1962.8 343.185L1694.12 611.855L1695.36 613.092L1964.03 344.421L1962.8 343.185Z" fill="#417181"/>
</g>
<g opacity="0.1">
<path d="M1019.67 740.064L751 1008.73L752.237 1009.97L1020.91 741.3L1019.67 740.064Z" fill="#326B98"/>
<path d="M1276.41 996.79L1007.74 1265.46L1008.98 1266.7L1277.65 998.027L1276.41 996.79Z" fill="#326B98"/>
<path d="M1262.14 982.536L993.469 1251.21L994.705 1252.44L1263.38 983.773L1262.14 982.536Z" fill="#326B98"/>
<path d="M1247.88 968.275L979.211 1236.95L980.447 1238.18L1249.12 969.511L1247.88 968.275Z" fill="#326B98"/>
<path d="M1233.62 954.005L964.953 1222.68L966.19 1223.91L1234.86 955.242L1233.62 954.005Z" fill="#326B98"/>
<path d="M1219.35 939.735L950.68 1208.41L951.916 1209.64L1220.59 940.972L1219.35 939.735Z" fill="#326B98"/>
<path d="M1205.09 925.478L936.422 1194.15L937.658 1195.38L1206.33 926.714L1205.09 925.478Z" fill="#326B98"/>
<path d="M1190.83 911.22L922.156 1179.89L923.393 1181.13L1192.06 912.456L1190.83 911.22Z" fill="#326B98"/>
<path d="M1176.56 896.95L907.891 1165.62L909.127 1166.86L1177.8 898.187L1176.56 896.95Z" fill="#326B98"/>
<path d="M1162.3 882.685L893.633 1151.36L894.869 1152.59L1163.54 883.921L1162.3 882.685Z" fill="#326B98"/>
<path d="M1148.05 868.423L879.375 1137.09L880.612 1138.33L1149.28 869.66L1148.05 868.423Z" fill="#326B98"/>
<path d="M1133.78 854.169L865.109 1122.84L866.346 1124.08L1135.02 855.406L1133.78 854.169Z" fill="#326B98"/>
<path d="M1119.51 839.9L850.844 1108.57L852.08 1109.81L1120.75 841.136L1119.51 839.9Z" fill="#326B98"/>
<path d="M1105.25 825.63L836.578 1094.3L837.815 1095.54L1106.49 826.867L1105.25 825.63Z" fill="#326B98"/>
<path d="M1091 811.372L822.328 1080.04L823.565 1081.28L1092.24 812.609L1091 811.372Z" fill="#326B98"/>
<path d="M1076.72 797.114L808.047 1065.79L809.283 1067.02L1077.95 798.351L1076.72 797.114Z" fill="#326B98"/>
<path d="M1062.45 782.841L793.781 1051.51L795.018 1052.75L1063.69 784.077L1062.45 782.841Z" fill="#326B98"/>
<path d="M1048.2 768.579L779.531 1037.25L780.768 1038.49L1049.44 769.816L1048.2 768.579Z" fill="#326B98"/>
<path d="M1033.94 754.318L765.266 1022.99L766.502 1024.22L1035.17 755.554L1033.94 754.318Z" fill="#326B98"/>
<path d="M1269.27 989.669L1000.6 1258.34L1001.84 1259.58L1270.51 990.906L1269.27 989.669Z" fill="#417181"/>
<path d="M1255.01 975.396L986.344 1244.07L987.58 1245.3L1256.25 976.632L1255.01 975.396Z" fill="#417181"/>
<path d="M1240.75 961.134L972.078 1229.8L973.315 1231.04L1241.99 962.37L1240.75 961.134Z" fill="#417181"/>
<path d="M1226.49 946.876L957.82 1215.55L959.057 1216.78L1227.73 948.113L1226.49 946.876Z" fill="#417181"/>
<path d="M1212.22 932.618L943.547 1201.29L944.783 1202.53L1213.45 933.855L1212.22 932.618Z" fill="#417181"/>
<path d="M1197.96 918.341L929.289 1187.01L930.526 1188.25L1199.2 919.577L1197.96 918.341Z" fill="#417181"/>
<path d="M1183.7 904.079L915.031 1172.75L916.268 1173.99L1184.94 905.316L1183.7 904.079Z" fill="#417181"/>
<path d="M1169.43 889.825L900.758 1158.5L901.994 1159.73L1170.67 891.062L1169.43 889.825Z" fill="#417181"/>
<path d="M1155.17 875.556L886.5 1144.23L887.737 1145.46L1156.41 876.792L1155.17 875.556Z" fill="#417181"/>
<path d="M1140.91 861.29L872.234 1129.96L873.471 1131.2L1142.14 862.527L1140.91 861.29Z" fill="#417181"/>
<path d="M1126.64 847.028L857.969 1115.7L859.205 1116.94L1127.88 848.265L1126.64 847.028Z" fill="#417181"/>
<path d="M1112.37 832.771L843.703 1101.44L844.94 1102.68L1113.61 834.007L1112.37 832.771Z" fill="#417181"/>
<path d="M1098.12 818.505L829.453 1087.18L830.69 1088.41L1099.36 819.742L1098.12 818.505Z" fill="#417181"/>
<path d="M1083.85 804.235L815.18 1072.91L816.416 1074.14L1085.09 805.472L1083.85 804.235Z" fill="#417181"/>
<path d="M1069.59 789.974L800.922 1058.64L802.158 1059.88L1070.83 791.21L1069.59 789.974Z" fill="#417181"/>
<path d="M1055.33 775.72L786.656 1044.39L787.893 1045.63L1056.56 776.956L1055.33 775.72Z" fill="#417181"/>
<path d="M1041.06 761.45L772.391 1030.12L773.627 1031.36L1042.3 762.687L1041.06 761.45Z" fill="#417181"/>
<path d="M1026.8 747.185L758.125 1015.86L759.362 1017.09L1028.03 748.421L1026.8 747.185Z" fill="#417181"/>
</g>
<g opacity="0.1">
<path d="M1288.67 471.001L1020 739.672L1021.24 740.908L1289.91 472.238L1288.67 471.001Z" fill="#326B98"/>
<path d="M1545.41 727.728L1276.74 996.398L1277.98 997.635L1546.65 728.964L1545.41 727.728Z" fill="#326B98"/>
<path d="M1531.14 713.474L1262.47 982.145L1263.71 983.381L1532.38 714.71L1531.14 713.474Z" fill="#326B98"/>
<path d="M1516.88 699.212L1248.21 967.883L1249.45 969.119L1518.12 700.449L1516.88 699.212Z" fill="#326B98"/>
<path d="M1502.62 684.943L1233.95 953.613L1235.19 954.85L1503.86 686.179L1502.62 684.943Z" fill="#326B98"/>
<path d="M1488.35 670.673L1219.68 939.344L1220.92 940.58L1489.59 671.91L1488.35 670.673Z" fill="#326B98"/>
<path d="M1474.09 656.415L1205.42 925.086L1206.66 926.322L1475.33 657.652L1474.09 656.415Z" fill="#326B98"/>
<path d="M1459.83 642.157L1191.16 910.828L1192.39 912.065L1461.06 643.394L1459.83 642.157Z" fill="#326B98"/>
<path d="M1445.56 627.888L1176.89 896.559L1178.13 897.795L1446.8 629.124L1445.56 627.888Z" fill="#326B98"/>
<path d="M1431.3 613.622L1162.63 882.293L1163.87 883.53L1432.54 614.859L1431.3 613.622Z" fill="#326B98"/>
<path d="M1417.05 599.361L1148.38 868.031L1149.61 869.268L1418.28 600.597L1417.05 599.361Z" fill="#326B98"/>
<path d="M1402.78 585.107L1134.11 853.777L1135.35 855.014L1404.02 586.343L1402.78 585.107Z" fill="#326B98"/>
<path d="M1388.51 570.837L1119.84 839.508L1121.08 840.744L1389.75 572.074L1388.51 570.837Z" fill="#326B98"/>
<path d="M1374.25 556.568L1105.58 825.238L1106.81 826.475L1375.49 557.804L1374.25 556.568Z" fill="#326B98"/>
<path d="M1360 542.31L1091.33 810.98L1092.56 812.217L1361.24 543.546L1360 542.31Z" fill="#326B98"/>
<path d="M1345.72 528.052L1077.05 796.723L1078.28 797.959L1346.95 529.288L1345.72 528.052Z" fill="#326B98"/>
<path d="M1331.45 513.778L1062.78 782.449L1064.02 783.686L1332.69 515.015L1331.45 513.778Z" fill="#326B98"/>
<path d="M1317.2 499.517L1048.53 768.188L1049.77 769.424L1318.44 500.753L1317.2 499.517Z" fill="#326B98"/>
<path d="M1302.94 485.255L1034.27 753.926L1035.5 755.162L1304.17 486.492L1302.94 485.255Z" fill="#326B98"/>
<path d="M1538.27 720.607L1269.6 989.277L1270.84 990.514L1539.51 721.843L1538.27 720.607Z" fill="#417181"/>
<path d="M1524.01 706.333L1255.34 975.004L1256.58 976.24L1525.25 707.57L1524.01 706.333Z" fill="#417181"/>
<path d="M1509.75 692.071L1241.08 960.742L1242.31 961.979L1510.99 693.308L1509.75 692.071Z" fill="#417181"/>
<path d="M1495.49 677.814L1226.82 946.484L1228.06 947.721L1496.73 679.05L1495.49 677.814Z" fill="#417181"/>
<path d="M1481.22 663.556L1212.55 932.227L1213.78 933.463L1482.45 664.792L1481.22 663.556Z" fill="#417181"/>
<path d="M1466.96 649.278L1198.29 917.949L1199.53 919.186L1468.2 650.515L1466.96 649.278Z" fill="#417181"/>
<path d="M1452.7 635.017L1184.03 903.688L1185.27 904.924L1453.94 636.253L1452.7 635.017Z" fill="#417181"/>
<path d="M1438.43 620.763L1169.76 889.434L1170.99 890.67L1439.67 621.999L1438.43 620.763Z" fill="#417181"/>
<path d="M1424.17 606.493L1155.5 875.164L1156.74 876.401L1425.41 607.73L1424.17 606.493Z" fill="#417181"/>
<path d="M1409.91 592.228L1141.23 860.898L1142.47 862.135L1411.14 593.464L1409.91 592.228Z" fill="#417181"/>
<path d="M1395.64 577.966L1126.97 846.637L1128.21 847.873L1396.88 579.202L1395.64 577.966Z" fill="#417181"/>
<path d="M1381.37 563.708L1112.7 832.379L1113.94 833.615L1382.61 564.945L1381.37 563.708Z" fill="#417181"/>
<path d="M1367.12 549.443L1098.45 818.113L1099.69 819.35L1368.36 550.679L1367.12 549.443Z" fill="#417181"/>
<path d="M1352.85 535.173L1084.18 803.844L1085.42 805.08L1354.09 536.41L1352.85 535.173Z" fill="#417181"/>
<path d="M1338.59 520.911L1069.92 789.582L1071.16 790.819L1339.83 522.148L1338.59 520.911Z" fill="#417181"/>
<path d="M1324.33 506.657L1055.66 775.328L1056.89 776.565L1325.56 507.894L1324.33 506.657Z" fill="#417181"/>
<path d="M1310.06 492.388L1041.39 761.059L1042.63 762.295L1311.3 493.624L1310.06 492.388Z" fill="#417181"/>
<path d="M1295.8 478.122L1027.12 746.793L1028.36 748.03L1297.03 479.359L1295.8 478.122Z" fill="#417181"/>
</g>
<g opacity="0.1">
<path d="M661.671 575.064L393 843.734L394.237 844.971L662.907 576.3L661.671 575.064Z" fill="#326B98"/>
<path d="M918.413 831.79L649.742 1100.46L650.979 1101.7L919.649 833.027L918.413 831.79Z" fill="#326B98"/>
<path d="M904.139 817.536L635.469 1086.21L636.705 1087.44L905.376 818.773L904.139 817.536Z" fill="#326B98"/>
<path d="M889.882 803.275L621.211 1071.95L622.447 1073.18L891.118 804.511L889.882 803.275Z" fill="#326B98"/>
<path d="M875.624 789.005L606.953 1057.68L608.19 1058.91L876.86 790.242L875.624 789.005Z" fill="#326B98"/>
<path d="M861.35 774.735L592.68 1043.41L593.916 1044.64L862.587 775.972L861.35 774.735Z" fill="#326B98"/>
<path d="M847.093 760.478L578.422 1029.15L579.658 1030.38L848.329 761.714L847.093 760.478Z" fill="#326B98"/>
<path d="M832.827 746.22L564.156 1014.89L565.393 1016.13L834.064 747.456L832.827 746.22Z" fill="#326B98"/>
<path d="M818.561 731.95L549.891 1000.62L551.127 1001.86L819.798 733.187L818.561 731.95Z" fill="#326B98"/>
<path d="M804.304 717.685L535.633 986.355L536.869 987.592L805.54 718.921L804.304 717.685Z" fill="#326B98"/>
<path d="M790.046 703.423L521.375 972.094L522.612 973.33L791.282 704.66L790.046 703.423Z" fill="#326B98"/>
<path d="M775.78 689.169L507.109 957.84L508.346 959.076L777.017 690.406L775.78 689.169Z" fill="#326B98"/>
<path d="M761.515 674.9L492.844 943.57L494.08 944.807L762.751 676.136L761.515 674.9Z" fill="#326B98"/>
<path d="M747.249 660.63L478.578 929.301L479.815 930.537L748.485 661.867L747.249 660.63Z" fill="#326B98"/>
<path d="M732.999 646.372L464.328 915.043L465.565 916.28L734.235 647.609L732.999 646.372Z" fill="#326B98"/>
<path d="M718.718 632.114L450.047 900.785L451.283 902.022L719.954 633.351L718.718 632.114Z" fill="#326B98"/>
<path d="M704.452 617.841L435.781 886.512L437.018 887.748L705.689 619.077L704.452 617.841Z" fill="#326B98"/>
<path d="M690.202 603.579L421.531 872.25L422.768 873.487L691.439 604.816L690.202 603.579Z" fill="#326B98"/>
<path d="M675.936 589.318L407.266 857.988L408.502 859.225L677.173 590.554L675.936 589.318Z" fill="#326B98"/>
<path d="M911.272 824.669L642.602 1093.34L643.838 1094.58L912.509 825.906L911.272 824.669Z" fill="#417181"/>
<path d="M897.015 810.396L628.344 1079.07L629.58 1080.3L898.251 811.632L897.015 810.396Z" fill="#417181"/>
<path d="M882.749 796.134L614.078 1064.8L615.315 1066.04L883.985 797.37L882.749 796.134Z" fill="#417181"/>
<path d="M868.491 781.876L599.82 1050.55L601.057 1051.78L869.728 783.113L868.491 781.876Z" fill="#417181"/>
<path d="M854.218 767.618L585.547 1036.29L586.783 1037.53L855.454 768.855L854.218 767.618Z" fill="#417181"/>
<path d="M839.96 753.341L571.289 1022.01L572.526 1023.25L841.196 754.577L839.96 753.341Z" fill="#417181"/>
<path d="M825.702 739.079L557.031 1007.75L558.268 1008.99L826.939 740.316L825.702 739.079Z" fill="#417181"/>
<path d="M811.429 724.825L542.758 993.496L543.994 994.733L812.665 726.062L811.429 724.825Z" fill="#417181"/>
<path d="M797.171 710.556L528.5 979.227L529.737 980.463L798.407 711.792L797.171 710.556Z" fill="#417181"/>
<path d="M782.905 696.29L514.234 964.961L515.471 966.197L784.142 697.527L782.905 696.29Z" fill="#417181"/>
<path d="M768.64 682.028L499.969 950.699L501.205 951.936L769.876 683.265L768.64 682.028Z" fill="#417181"/>
<path d="M754.374 667.771L485.703 936.441L486.94 937.678L755.61 669.007L754.374 667.771Z" fill="#417181"/>
<path d="M740.124 653.505L471.453 922.176L472.69 923.412L741.36 654.742L740.124 653.505Z" fill="#417181"/>
<path d="M725.85 639.235L457.18 907.906L458.416 909.143L727.087 640.472L725.85 639.235Z" fill="#417181"/>
<path d="M711.593 624.974L442.922 893.645L444.158 894.881L712.829 626.21L711.593 624.974Z" fill="#417181"/>
<path d="M697.327 610.72L428.656 879.391L429.893 880.627L698.564 611.956L697.327 610.72Z" fill="#417181"/>
<path d="M683.061 596.45L414.391 865.121L415.627 866.358L684.298 597.687L683.061 596.45Z" fill="#417181"/>
<path d="M668.796 582.185L400.125 850.855L401.362 852.092L670.032 583.421L668.796 582.185Z" fill="#417181"/>
</g>
<g opacity="0.1">
<path d="M930.671 306.001L662 574.672L663.237 575.908L931.907 307.238L930.671 306.001Z" fill="#326B98"/>
<path d="M1187.41 562.728L918.742 831.398L919.979 832.635L1188.65 563.964L1187.41 562.728Z" fill="#326B98"/>
<path d="M1173.14 548.474L904.469 817.145L905.705 818.381L1174.38 549.71L1173.14 548.474Z" fill="#326B98"/>
<path d="M1158.88 534.212L890.211 802.883L891.447 804.119L1160.12 535.449L1158.88 534.212Z" fill="#326B98"/>
<path d="M1144.62 519.943L875.953 788.613L877.19 789.85L1145.86 521.179L1144.62 519.943Z" fill="#326B98"/>
<path d="M1130.35 505.673L861.68 774.344L862.916 775.58L1131.59 506.91L1130.35 505.673Z" fill="#326B98"/>
<path d="M1116.09 491.415L847.422 760.086L848.658 761.322L1117.33 492.652L1116.09 491.415Z" fill="#326B98"/>
<path d="M1101.83 477.157L833.156 745.828L834.393 747.065L1103.06 478.394L1101.83 477.157Z" fill="#326B98"/>
<path d="M1087.56 462.888L818.891 731.559L820.127 732.795L1088.8 464.124L1087.56 462.888Z" fill="#326B98"/>
<path d="M1073.3 448.622L804.633 717.293L805.869 718.53L1074.54 449.859L1073.3 448.622Z" fill="#326B98"/>
<path d="M1059.05 434.361L790.375 703.031L791.612 704.268L1060.28 435.597L1059.05 434.361Z" fill="#326B98"/>
<path d="M1044.78 420.107L776.109 688.777L777.346 690.014L1046.02 421.343L1044.78 420.107Z" fill="#326B98"/>
<path d="M1030.51 405.837L761.844 674.508L763.08 675.744L1031.75 407.074L1030.51 405.837Z" fill="#326B98"/>
<path d="M1016.25 391.568L747.578 660.238L748.815 661.475L1017.49 392.804L1016.25 391.568Z" fill="#326B98"/>
<path d="M1002 377.31L733.328 645.98L734.565 647.217L1003.24 378.546L1002 377.31Z" fill="#326B98"/>
<path d="M987.718 363.052L719.047 631.723L720.283 632.959L988.954 364.288L987.718 363.052Z" fill="#326B98"/>
<path d="M973.452 348.778L704.781 617.449L706.018 618.686L974.689 350.015L973.452 348.778Z" fill="#326B98"/>
<path d="M959.202 334.517L690.531 603.188L691.768 604.424L960.439 335.753L959.202 334.517Z" fill="#326B98"/>
<path d="M944.936 320.255L676.266 588.926L677.502 590.162L946.173 321.492L944.936 320.255Z" fill="#326B98"/>
<path d="M1180.27 555.607L911.602 824.277L912.838 825.514L1181.51 556.843L1180.27 555.607Z" fill="#417181"/>
<path d="M1166.01 541.333L897.344 810.004L898.58 811.24L1167.25 542.57L1166.01 541.333Z" fill="#417181"/>
<path d="M1151.75 527.071L883.078 795.742L884.315 796.979L1152.99 528.308L1151.75 527.071Z" fill="#417181"/>
<path d="M1137.49 512.814L868.82 781.484L870.057 782.721L1138.73 514.05L1137.49 512.814Z" fill="#417181"/>
<path d="M1123.22 498.556L854.547 767.227L855.783 768.463L1124.45 499.792L1123.22 498.556Z" fill="#417181"/>
<path d="M1108.96 484.278L840.289 752.949L841.526 754.186L1110.2 485.515L1108.96 484.278Z" fill="#417181"/>
<path d="M1094.7 470.017L826.031 738.688L827.268 739.924L1095.94 471.253L1094.7 470.017Z" fill="#417181"/>
<path d="M1080.43 455.763L811.758 724.434L812.994 725.67L1081.67 456.999L1080.43 455.763Z" fill="#417181"/>
<path d="M1066.17 441.493L797.5 710.164L798.737 711.401L1067.41 442.73L1066.17 441.493Z" fill="#417181"/>
<path d="M1051.91 427.228L783.234 695.898L784.471 697.135L1053.14 428.464L1051.91 427.228Z" fill="#417181"/>
<path d="M1037.64 412.966L768.969 681.637L770.205 682.873L1038.88 414.202L1037.64 412.966Z" fill="#417181"/>
<path d="M1023.37 398.708L754.703 667.379L755.94 668.615L1024.61 399.945L1023.37 398.708Z" fill="#417181"/>
<path d="M1009.12 384.443L740.453 653.113L741.69 654.35L1010.36 385.679L1009.12 384.443Z" fill="#417181"/>
<path d="M994.85 370.173L726.18 638.844L727.416 640.08L996.087 371.41L994.85 370.173Z" fill="#417181"/>
<path d="M980.593 355.911L711.922 624.582L713.158 625.819L981.829 357.148L980.593 355.911Z" fill="#417181"/>
<path d="M966.327 341.657L697.656 610.328L698.893 611.565L967.564 342.894L966.327 341.657Z" fill="#417181"/>
<path d="M952.061 327.388L683.391 596.059L684.627 597.295L953.298 328.624L952.061 327.388Z" fill="#417181"/>
<path d="M937.796 313.122L669.125 581.793L670.362 583.03L939.032 314.359L937.796 313.122Z" fill="#417181"/>
</g>
<g opacity="0.1">
<path d="M274.671 436.064L6 704.734L7.23655 705.971L275.907 437.3L274.671 436.064Z" fill="#326B98"/>
<path d="M531.413 692.79L262.742 961.461L263.979 962.697L532.649 694.027L531.413 692.79Z" fill="#326B98"/>
<path d="M517.139 678.536L248.469 947.207L249.705 948.444L518.376 679.773L517.139 678.536Z" fill="#326B98"/>
<path d="M502.882 664.275L234.211 932.945L235.447 934.182L504.118 665.511L502.882 664.275Z" fill="#326B98"/>
<path d="M488.624 650.005L219.953 918.676L221.19 919.912L489.86 651.242L488.624 650.005Z" fill="#326B98"/>
<path d="M474.35 635.735L205.68 904.406L206.916 905.643L475.587 636.972L474.35 635.735Z" fill="#326B98"/>
<path d="M460.093 621.478L191.422 890.148L192.658 891.385L461.329 622.714L460.093 621.478Z" fill="#326B98"/>
<path d="M445.827 607.22L177.156 875.891L178.393 877.127L447.064 608.456L445.827 607.22Z" fill="#326B98"/>
<path d="M431.561 592.95L162.891 861.621L164.127 862.858L432.798 594.187L431.561 592.95Z" fill="#326B98"/>
<path d="M417.304 578.685L148.633 847.355L149.869 848.592L418.54 579.921L417.304 578.685Z" fill="#326B98"/>
<path d="M403.046 564.423L134.375 833.094L135.612 834.33L404.282 565.66L403.046 564.423Z" fill="#326B98"/>
<path d="M388.78 550.169L120.109 818.84L121.346 820.076L390.017 551.406L388.78 550.169Z" fill="#326B98"/>
<path d="M374.515 535.9L105.844 804.57L107.08 805.807L375.751 537.136L374.515 535.9Z" fill="#326B98"/>
<path d="M360.249 521.63L91.5781 790.301L92.8147 791.537L361.485 522.867L360.249 521.63Z" fill="#326B98"/>
<path d="M345.999 507.372L77.3281 776.043L78.5647 777.28L347.235 508.609L345.999 507.372Z" fill="#326B98"/>
<path d="M331.718 493.114L63.0469 761.785L64.2834 763.022L332.954 494.351L331.718 493.114Z" fill="#326B98"/>
<path d="M317.452 478.841L48.7812 747.512L50.0178 748.748L318.689 480.077L317.452 478.841Z" fill="#326B98"/>
<path d="M303.202 464.579L34.5312 733.25L35.7678 734.487L304.439 465.816L303.202 464.579Z" fill="#326B98"/>
<path d="M288.936 450.318L20.2656 718.988L21.5022 720.225L290.173 451.554L288.936 450.318Z" fill="#326B98"/>
<path d="M524.272 685.669L255.602 954.34L256.838 955.576L525.509 686.906L524.272 685.669Z" fill="#417181"/>
<path d="M510.015 671.396L241.344 940.066L242.58 941.303L511.251 672.632L510.015 671.396Z" fill="#417181"/>
<path d="M495.749 657.134L227.078 925.805L228.315 927.041L496.985 658.37L495.749 657.134Z" fill="#417181"/>
<path d="M481.491 642.876L212.82 911.547L214.057 912.783L482.728 644.113L481.491 642.876Z" fill="#417181"/>
<path d="M467.218 628.618L198.547 897.289L199.783 898.526L468.454 629.855L467.218 628.618Z" fill="#417181"/>
<path d="M452.96 614.341L184.289 883.012L185.526 884.248L454.196 615.577L452.96 614.341Z" fill="#417181"/>
<path d="M438.702 600.079L170.031 868.75L171.268 869.987L439.939 601.316L438.702 600.079Z" fill="#417181"/>
<path d="M424.429 585.825L155.758 854.496L156.994 855.733L425.665 587.062L424.429 585.825Z" fill="#417181"/>
<path d="M410.171 571.556L141.5 840.227L142.737 841.463L411.407 572.792L410.171 571.556Z" fill="#417181"/>
<path d="M395.905 557.29L127.234 825.961L128.471 827.197L397.142 558.527L395.905 557.29Z" fill="#417181"/>
<path d="M381.64 543.028L112.969 811.699L114.205 812.936L382.876 544.265L381.64 543.028Z" fill="#417181"/>
<path d="M367.374 528.771L98.7031 797.441L99.9397 798.678L368.61 530.007L367.374 528.771Z" fill="#417181"/>
<path d="M353.124 514.505L84.4531 783.176L85.6897 784.412L354.36 515.742L353.124 514.505Z" fill="#417181"/>
<path d="M338.85 500.235L70.1797 768.906L71.4162 770.143L340.087 501.472L338.85 500.235Z" fill="#417181"/>
<path d="M324.593 485.974L55.9219 754.645L57.1584 755.881L325.829 487.21L324.593 485.974Z" fill="#417181"/>
<path d="M310.327 471.72L41.6562 740.391L42.8928 741.627L311.564 472.956L310.327 471.72Z" fill="#417181"/>
<path d="M296.061 457.45L27.3906 726.121L28.6272 727.358L297.298 458.687L296.061 457.45Z" fill="#417181"/>
<path d="M281.796 443.185L13.125 711.855L14.3615 713.092L283.032 444.421L281.796 443.185Z" fill="#417181"/>
</g>
<g opacity="0.1">
<path d="M543.671 167.001L275 435.672L276.237 436.908L544.907 168.238L543.671 167.001Z" fill="#326B98"/>
<path d="M800.413 423.728L531.742 692.398L532.979 693.635L801.649 424.964L800.413 423.728Z" fill="#326B98"/>
<path d="M786.139 409.474L517.469 678.145L518.705 679.381L787.376 410.71L786.139 409.474Z" fill="#326B98"/>
<path d="M771.882 395.212L503.211 663.883L504.447 665.119L773.118 396.449L771.882 395.212Z" fill="#326B98"/>
<path d="M757.624 380.943L488.953 649.613L490.19 650.85L758.86 382.179L757.624 380.943Z" fill="#326B98"/>
<path d="M743.35 366.673L474.68 635.344L475.916 636.58L744.587 367.91L743.35 366.673Z" fill="#326B98"/>
<path d="M729.093 352.415L460.422 621.086L461.658 622.322L730.329 353.652L729.093 352.415Z" fill="#326B98"/>
<path d="M714.827 338.157L446.156 606.828L447.393 608.065L716.064 339.394L714.827 338.157Z" fill="#326B98"/>
<path d="M700.561 323.888L431.891 592.559L433.127 593.795L701.798 325.124L700.561 323.888Z" fill="#326B98"/>
<path d="M686.304 309.622L417.633 578.293L418.869 579.53L687.54 310.859L686.304 309.622Z" fill="#326B98"/>
<path d="M672.046 295.361L403.375 564.031L404.612 565.268L673.282 296.597L672.046 295.361Z" fill="#326B98"/>
<path d="M657.78 281.107L389.109 549.777L390.346 551.014L659.017 282.343L657.78 281.107Z" fill="#326B98"/>
<path d="M643.515 266.837L374.844 535.508L376.08 536.744L644.751 268.074L643.515 266.837Z" fill="#326B98"/>
<path d="M629.249 252.568L360.578 521.238L361.815 522.475L630.485 253.804L629.249 252.568Z" fill="#326B98"/>
<path d="M614.999 238.31L346.328 506.98L347.565 508.217L616.235 239.546L614.999 238.31Z" fill="#326B98"/>
<path d="M600.718 224.052L332.047 492.723L333.283 493.959L601.954 225.288L600.718 224.052Z" fill="#326B98"/>
<path d="M586.452 209.778L317.781 478.449L319.018 479.686L587.689 211.015L586.452 209.778Z" fill="#326B98"/>
<path d="M572.202 195.517L303.531 464.188L304.768 465.424L573.439 196.753L572.202 195.517Z" fill="#326B98"/>
<path d="M557.936 181.255L289.266 449.926L290.502 451.162L559.173 182.492L557.936 181.255Z" fill="#326B98"/>
<path d="M793.272 416.607L524.602 685.277L525.838 686.514L794.509 417.843L793.272 416.607Z" fill="#417181"/>
<path d="M779.015 402.333L510.344 671.004L511.58 672.24L780.251 403.57L779.015 402.333Z" fill="#417181"/>
<path d="M764.749 388.071L496.078 656.742L497.315 657.979L765.985 389.308L764.749 388.071Z" fill="#417181"/>
<path d="M750.491 373.814L481.82 642.484L483.057 643.721L751.728 375.05L750.491 373.814Z" fill="#417181"/>
<path d="M736.218 359.556L467.547 628.227L468.783 629.463L737.454 360.792L736.218 359.556Z" fill="#417181"/>
<path d="M721.96 345.278L453.289 613.949L454.526 615.186L723.196 346.515L721.96 345.278Z" fill="#417181"/>
<path d="M707.702 331.017L439.031 599.688L440.268 600.924L708.939 332.253L707.702 331.017Z" fill="#417181"/>
<path d="M693.429 316.763L424.758 585.434L425.994 586.67L694.665 317.999L693.429 316.763Z" fill="#417181"/>
<path d="M679.171 302.493L410.5 571.164L411.737 572.401L680.407 303.73L679.171 302.493Z" fill="#417181"/>
<path d="M664.905 288.228L396.234 556.898L397.471 558.135L666.142 289.464L664.905 288.228Z" fill="#417181"/>
<path d="M650.64 273.966L381.969 542.637L383.205 543.873L651.876 275.202L650.64 273.966Z" fill="#417181"/>
<path d="M636.374 259.708L367.703 528.379L368.94 529.615L637.61 260.945L636.374 259.708Z" fill="#417181"/>
<path d="M622.124 245.443L353.453 514.113L354.69 515.35L623.36 246.679L622.124 245.443Z" fill="#417181"/>
<path d="M607.85 231.173L339.18 499.844L340.416 501.08L609.087 232.41L607.85 231.173Z" fill="#417181"/>
<path d="M593.593 216.911L324.922 485.582L326.158 486.819L594.829 218.148L593.593 216.911Z" fill="#417181"/>
<path d="M579.327 202.657L310.656 471.328L311.893 472.565L580.564 203.894L579.327 202.657Z" fill="#417181"/>
<path d="M565.061 188.388L296.391 457.059L297.627 458.295L566.298 189.624L565.061 188.388Z" fill="#417181"/>
<path d="M550.796 174.122L282.125 442.793L283.362 444.03L552.032 175.359L550.796 174.122Z" fill="#417181"/>
</g>
<g opacity="0.1">
<path d="M45.4129 649.79L-223.258 918.461L-222.021 919.697L46.6495 651.027L45.4129 649.79Z" fill="#326B98"/>
<path d="M31.1395 635.536L-237.531 904.207L-236.295 905.444L32.376 636.773L31.1395 635.536Z" fill="#326B98"/>
<path d="M16.8817 621.275L-251.789 889.945L-250.553 891.182L18.1183 622.511L16.8817 621.275Z" fill="#326B98"/>
<path d="M2.6239 607.005L-266.047 875.676L-264.81 876.912L3.86044 608.242L2.6239 607.005Z" fill="#326B98"/>
<path d="M38.2723 642.669L-230.398 911.34L-229.162 912.576L39.5089 643.906L38.2723 642.669Z" fill="#417181"/>
<path d="M24.0145 628.396L-244.656 897.066L-243.42 898.303L25.2511 629.632L24.0145 628.396Z" fill="#417181"/>
<path d="M9.7489 614.134L-258.922 882.805L-257.685 884.041L10.9854 615.37L9.7489 614.134Z" fill="#417181"/>
</g>
<g opacity="0.1">
<path d="M57.6707 124.001L-211 392.672L-209.763 393.908L58.9073 125.238L57.6707 124.001Z" fill="#326B98"/>
<path d="M314.413 380.728L45.7422 649.398L46.9787 650.635L315.649 381.964L314.413 380.728Z" fill="#326B98"/>
<path d="M300.139 366.474L31.4688 635.145L32.7053 636.381L301.376 367.71L300.139 366.474Z" fill="#326B98"/>
<path d="M285.882 352.212L17.2109 620.883L18.4475 622.119L287.118 353.449L285.882 352.212Z" fill="#326B98"/>
<path d="M271.624 337.943L2.95312 606.613L4.18967 607.85L272.86 339.179L271.624 337.943Z" fill="#326B98"/>
<path d="M257.35 323.673L-11.3203 592.344L-10.0838 593.58L258.587 324.91L257.35 323.673Z" fill="#326B98"/>
<path d="M243.093 309.415L-25.5781 578.086L-24.3416 579.322L244.329 310.652L243.093 309.415Z" fill="#326B98"/>
<path d="M228.827 295.157L-39.8438 563.828L-38.6072 565.065L230.064 296.394L228.827 295.157Z" fill="#326B98"/>
<path d="M214.561 280.888L-54.1094 549.559L-52.8728 550.795L215.798 282.124L214.561 280.888Z" fill="#326B98"/>
<path d="M200.304 266.622L-68.3672 535.293L-67.1306 536.53L201.54 267.859L200.304 266.622Z" fill="#326B98"/>
<path d="M186.046 252.361L-82.625 521.031L-81.3885 522.268L187.282 253.597L186.046 252.361Z" fill="#326B98"/>
<path d="M171.78 238.107L-96.8906 506.777L-95.6541 508.014L173.017 239.343L171.78 238.107Z" fill="#326B98"/>
<path d="M157.515 223.837L-111.156 492.508L-109.92 493.744L158.751 225.074L157.515 223.837Z" fill="#326B98"/>
<path d="M143.249 209.568L-125.422 478.238L-124.185 479.475L144.485 210.804L143.249 209.568Z" fill="#326B98"/>
<path d="M128.999 195.31L-139.672 463.98L-138.435 465.217L130.235 196.546L128.999 195.31Z" fill="#326B98"/>
<path d="M114.718 181.052L-153.953 449.723L-152.717 450.959L115.954 182.288L114.718 181.052Z" fill="#326B98"/>
<path d="M100.452 166.778L-168.219 435.449L-166.982 436.686L101.689 168.015L100.452 166.778Z" fill="#326B98"/>
<path d="M86.202 152.517L-182.469 421.188L-181.232 422.424L87.4385 153.753L86.202 152.517Z" fill="#326B98"/>
<path d="M71.9364 138.255L-196.734 406.926L-195.498 408.162L73.1729 139.492L71.9364 138.255Z" fill="#326B98"/>
<path d="M307.272 373.607L38.6016 642.277L39.8381 643.514L308.509 374.843L307.272 373.607Z" fill="#417181"/>
<path d="M293.015 359.333L24.3438 628.004L25.5803 629.24L294.251 360.57L293.015 359.333Z" fill="#417181"/>
<path d="M278.749 345.071L10.0781 613.742L11.3147 614.979L279.985 346.308L278.749 345.071Z" fill="#417181"/>
<path d="M264.491 330.814L-4.17969 599.484L-2.94314 600.721L265.728 332.05L264.491 330.814Z" fill="#417181"/>
<path d="M250.218 316.556L-18.4531 585.227L-17.2166 586.463L251.454 317.792L250.218 316.556Z" fill="#417181"/>
<path d="M235.96 302.278L-32.7109 570.949L-31.4744 572.186L237.196 303.515L235.96 302.278Z" fill="#417181"/>
<path d="M221.702 288.017L-46.9688 556.688L-45.7322 557.924L222.939 289.253L221.702 288.017Z" fill="#417181"/>
<path d="M207.429 273.763L-61.2422 542.434L-60.0056 543.67L208.665 274.999L207.429 273.763Z" fill="#417181"/>
<path d="M193.171 259.493L-75.5 528.164L-74.2635 529.401L194.407 260.73L193.171 259.493Z" fill="#417181"/>
<path d="M178.905 245.228L-89.7656 513.898L-88.5291 515.135L180.142 246.464L178.905 245.228Z" fill="#417181"/>
<path d="M164.64 230.966L-104.031 499.637L-102.795 500.873L165.876 232.202L164.64 230.966Z" fill="#417181"/>
<path d="M150.374 216.708L-118.297 485.379L-117.06 486.615L151.61 217.945L150.374 216.708Z" fill="#417181"/>
<path d="M136.124 202.443L-132.547 471.113L-131.31 472.35L137.36 203.679L136.124 202.443Z" fill="#417181"/>
<path d="M121.85 188.173L-146.82 456.844L-145.584 458.08L123.087 189.41L121.85 188.173Z" fill="#417181"/>
<path d="M107.593 173.911L-161.078 442.582L-159.842 443.819L108.829 175.148L107.593 173.911Z" fill="#417181"/>
<path d="M93.327 159.657L-175.344 428.328L-174.107 429.565L94.5635 160.894L93.327 159.657Z" fill="#417181"/>
<path d="M79.0614 145.388L-189.609 414.059L-188.373 415.295L80.2979 146.624L79.0614 145.388Z" fill="#417181"/>
<path d="M64.7957 131.122L-203.875 399.793L-202.638 401.03L66.0323 132.359L64.7957 131.122Z" fill="#417181"/>
</g>
<g opacity="0.1">
<path d="M1417.67 874.064L1149 1142.73L1150.24 1143.97L1418.91 875.3L1417.67 874.064Z" fill="#326B98"/>
<path d="M1531.78 988.169L1263.11 1256.84L1264.35 1258.08L1533.02 989.406L1531.78 988.169Z" fill="#326B98"/>
<path d="M1517.51 973.9L1248.84 1242.57L1250.08 1243.81L1518.75 975.136L1517.51 973.9Z" fill="#326B98"/>
<path d="M1503.25 959.63L1234.58 1228.3L1235.81 1229.54L1504.49 960.867L1503.25 959.63Z" fill="#326B98"/>
<path d="M1489 945.372L1220.33 1214.04L1221.56 1215.28L1490.24 946.609L1489 945.372Z" fill="#326B98"/>
<path d="M1474.72 931.114L1206.05 1199.79L1207.28 1201.02L1475.95 932.351L1474.72 931.114Z" fill="#326B98"/>
<path d="M1460.45 916.841L1191.78 1185.51L1193.02 1186.75L1461.69 918.077L1460.45 916.841Z" fill="#326B98"/>
<path d="M1446.2 902.579L1177.53 1171.25L1178.77 1172.49L1447.44 903.816L1446.2 902.579Z" fill="#326B98"/>
<path d="M1431.94 888.318L1163.27 1156.99L1164.5 1158.22L1433.17 889.554L1431.94 888.318Z" fill="#326B98"/>
<path d="M1538.91 995.29L1270.23 1263.96L1271.47 1265.2L1540.14 996.527L1538.91 995.29Z" fill="#417181"/>
<path d="M1524.64 981.028L1255.97 1249.7L1257.21 1250.94L1525.88 982.265L1524.64 981.028Z" fill="#417181"/>
<path d="M1510.37 966.771L1241.7 1235.44L1242.94 1236.68L1511.61 968.007L1510.37 966.771Z" fill="#417181"/>
<path d="M1496.12 952.505L1227.45 1221.18L1228.69 1222.41L1497.36 953.742L1496.12 952.505Z" fill="#417181"/>
<path d="M1481.85 938.235L1213.18 1206.91L1214.42 1208.14L1483.09 939.472L1481.85 938.235Z" fill="#417181"/>
<path d="M1467.59 923.974L1198.92 1192.64L1200.16 1193.88L1468.83 925.21L1467.59 923.974Z" fill="#417181"/>
<path d="M1453.33 909.72L1184.66 1178.39L1185.89 1179.63L1454.56 910.956L1453.33 909.72Z" fill="#417181"/>
<path d="M1439.06 895.45L1170.39 1164.12L1171.63 1165.36L1440.3 896.687L1439.06 895.45Z" fill="#417181"/>
<path d="M1424.8 881.185L1156.12 1149.86L1157.36 1151.09L1426.03 882.421L1424.8 881.185Z" fill="#417181"/>
</g>
<g opacity="0.1">
<path d="M1686.67 605.001L1418 873.672L1419.24 874.908L1687.91 606.238L1686.67 605.001Z" fill="#326B98"/>
<path d="M1943.41 861.728L1674.74 1130.4L1675.98 1131.63L1944.65 862.964L1943.41 861.728Z" fill="#326B98"/>
<path d="M1929.14 847.474L1660.47 1116.14L1661.71 1117.38L1930.38 848.71L1929.14 847.474Z" fill="#326B98"/>
<path d="M1914.88 833.212L1646.21 1101.88L1647.45 1103.12L1916.12 834.449L1914.88 833.212Z" fill="#326B98"/>
<path d="M1900.62 818.943L1631.95 1087.61L1633.19 1088.85L1901.86 820.179L1900.62 818.943Z" fill="#326B98"/>
<path d="M1886.35 804.673L1617.68 1073.34L1618.92 1074.58L1887.59 805.91L1886.35 804.673Z" fill="#326B98"/>
<path d="M1872.09 790.415L1603.42 1059.09L1604.66 1060.32L1873.33 791.652L1872.09 790.415Z" fill="#326B98"/>
<path d="M1857.83 776.157L1589.16 1044.83L1590.39 1046.06L1859.06 777.394L1857.83 776.157Z" fill="#326B98"/>
<path d="M1843.56 761.888L1574.89 1030.56L1576.13 1031.8L1844.8 763.124L1843.56 761.888Z" fill="#326B98"/>
<path d="M1829.3 747.622L1560.63 1016.29L1561.87 1017.53L1830.54 748.859L1829.3 747.622Z" fill="#326B98"/>
<path d="M1815.05 733.361L1546.38 1002.03L1547.61 1003.27L1816.28 734.597L1815.05 733.361Z" fill="#326B98"/>
<path d="M1800.78 719.107L1532.11 987.777L1533.35 989.014L1802.02 720.343L1800.78 719.107Z" fill="#326B98"/>
<path d="M1786.51 704.837L1517.84 973.508L1519.08 974.744L1787.75 706.074L1786.51 704.837Z" fill="#326B98"/>
<path d="M1772.25 690.568L1503.58 959.238L1504.81 960.475L1773.49 691.804L1772.25 690.568Z" fill="#326B98"/>
<path d="M1758 676.31L1489.33 944.98L1490.56 946.217L1759.24 677.546L1758 676.31Z" fill="#326B98"/>
<path d="M1743.72 662.052L1475.05 930.723L1476.28 931.959L1744.95 663.288L1743.72 662.052Z" fill="#326B98"/>
<path d="M1729.45 647.778L1460.78 916.449L1462.02 917.686L1730.69 649.015L1729.45 647.778Z" fill="#326B98"/>
<path d="M1715.2 633.517L1446.53 902.188L1447.77 903.424L1716.44 634.753L1715.2 633.517Z" fill="#326B98"/>
<path d="M1700.94 619.255L1432.27 887.926L1433.5 889.162L1702.17 620.492L1700.94 619.255Z" fill="#326B98"/>
<path d="M1936.27 854.607L1667.6 1123.28L1668.84 1124.51L1937.51 855.843L1936.27 854.607Z" fill="#417181"/>
<path d="M1922.01 840.333L1653.34 1109L1654.58 1110.24L1923.25 841.57L1922.01 840.333Z" fill="#417181"/>
<path d="M1907.75 826.071L1639.08 1094.74L1640.31 1095.98L1908.99 827.308L1907.75 826.071Z" fill="#417181"/>
<path d="M1893.49 811.814L1624.82 1080.48L1626.06 1081.72L1894.73 813.05L1893.49 811.814Z" fill="#417181"/>
<path d="M1879.22 797.556L1610.55 1066.23L1611.78 1067.46L1880.45 798.792L1879.22 797.556Z" fill="#417181"/>
<path d="M1864.96 783.278L1596.29 1051.95L1597.53 1053.19L1866.2 784.515L1864.96 783.278Z" fill="#417181"/>
<path d="M1850.7 769.017L1582.03 1037.69L1583.27 1038.92L1851.94 770.253L1850.7 769.017Z" fill="#417181"/>
<path d="M1836.43 754.763L1567.76 1023.43L1568.99 1024.67L1837.67 755.999L1836.43 754.763Z" fill="#417181"/>
<path d="M1822.17 740.493L1553.5 1009.16L1554.74 1010.4L1823.41 741.73L1822.17 740.493Z" fill="#417181"/>
<path d="M1807.91 726.228L1539.23 994.898L1540.47 996.135L1809.14 727.464L1807.91 726.228Z" fill="#417181"/>
<path d="M1793.64 711.966L1524.97 980.637L1526.21 981.873L1794.88 713.202L1793.64 711.966Z" fill="#417181"/>
<path d="M1779.37 697.708L1510.7 966.379L1511.94 967.615L1780.61 698.945L1779.37 697.708Z" fill="#417181"/>
<path d="M1765.12 683.443L1496.45 952.113L1497.69 953.35L1766.36 684.679L1765.12 683.443Z" fill="#417181"/>
<path d="M1750.85 669.173L1482.18 937.844L1483.42 939.08L1752.09 670.41L1750.85 669.173Z" fill="#417181"/>
<path d="M1736.59 654.911L1467.92 923.582L1469.16 924.819L1737.83 656.148L1736.59 654.911Z" fill="#417181"/>
<path d="M1722.33 640.657L1453.66 909.328L1454.89 910.565L1723.56 641.894L1722.33 640.657Z" fill="#417181"/>
<path d="M1708.06 626.388L1439.39 895.059L1440.63 896.295L1709.3 627.624L1708.06 626.388Z" fill="#417181"/>
<path d="M1693.8 612.122L1425.12 880.793L1426.36 882.03L1695.03 613.359L1693.8 612.122Z" fill="#417181"/>
</g>
</g>
</svg>
