<svg width="474" height="373" viewBox="0 0 474 373" fill="none" xmlns="http://www.w3.org/2000/svg">
<path opacity="0.1" fill-rule="evenodd" clip-rule="evenodd" d="M509 91.092L282.934 0L173 36.6762V328.762L225.126 350.157V558.034L110.705 511.663V261.223L163.639 242.84L109.767 221L0 257.62V549.908L226.066 641L336 604.324V312.238L283.874 290.843V82.9656L398.295 129.337V379.777L345.361 398.16L399.233 420L509 383.38V91.092ZM227.068 350.435L268.487 336.114L334.058 314.238V602.181L227.068 558.822V350.435ZM281.932 290.565V82.1785L174.942 38.8189V326.762L240.513 304.886L281.932 290.565ZM241.138 306.727L178.501 328.383L226.134 348.195L267.863 334.273L330.499 312.617L282.866 292.805L241.138 306.727ZM281.932 80.0813L176.777 37.4652L281.932 2.38351V80.0813ZM283.874 80.8684V2.47407L505.236 91.6706L399.296 127.645L283.874 80.8684ZM400.237 129.378L507.058 93.1045V381.253L455.294 360.912L400.237 379.124V129.378ZM455.238 362.978L505.182 382.605L400.237 417.616V381.171L455.238 362.978ZM398.295 381.835V417.522L350.881 398.3L398.295 381.835ZM227.068 560.919L332.223 603.535L227.068 638.617V560.919ZM225.126 560.132V638.526L3.76439 549.329L109.704 513.355L225.126 560.132ZM108.763 511.622L1.9422 547.895V259.747L53.7057 280.088L108.763 261.876V511.622ZM53.7625 278.022L3.81821 258.395L108.763 223.384V259.829L53.7625 278.022ZM110.705 259.165V223.478L158.119 242.7L110.705 259.165Z" fill="white"/>
</svg>
