<svg width="24" height="24" viewBox="0 0 24 24" fill="none" xmlns="http://www.w3.org/2000/svg">
<path d="M17.0036 9.1697C16.8162 8.98345 16.5628 8.87891 16.2986 8.87891C16.0344 8.87891 15.781 8.98345 15.5936 9.1697L12.0036 12.7097L8.46361 9.1697C8.27625 8.98345 8.0228 8.87891 7.75861 8.87891C7.49442 8.87891 7.24097 8.98345 7.05361 9.1697C6.95988 9.26266 6.88549 9.37326 6.83472 9.49512C6.78395 9.61698 6.75781 9.74769 6.75781 9.8797C6.75781 10.0117 6.78395 10.1424 6.83472 10.2643C6.88549 10.3861 6.95988 10.4967 7.05361 10.5897L11.2936 14.8297C11.3866 14.9234 11.4972 14.9978 11.619 15.0486C11.7409 15.0994 11.8716 15.1255 12.0036 15.1255C12.1356 15.1255 12.2663 15.0994 12.3882 15.0486C12.51 14.9978 12.6206 14.9234 12.7136 14.8297L17.0036 10.5897C17.0973 10.4967 17.1717 10.3861 17.2225 10.2643C17.2733 10.1424 17.2994 10.0117 17.2994 9.8797C17.2994 9.74769 17.2733 9.61698 17.2225 9.49512C17.1717 9.37326 17.0973 9.26266 17.0036 9.1697Z" fill="#F8FEFE"/>
</svg>
