<svg width="27" height="27" viewBox="0 0 27 27" fill="none" xmlns="http://www.w3.org/2000/svg">
<path d="M10.5781 14.623L19.1169 14.623C19.4152 14.623 19.7014 14.5045 19.9124 14.2935C20.1233 14.0826 20.2419 13.7964 20.2419 13.498C20.2419 13.1997 20.1233 12.9135 19.9124 12.7026C19.7014 12.4916 19.4152 12.373 19.1169 12.373L10.5781 12.373L9.45312 13.498L10.5781 14.623Z" fill="#6B7177"/>
<path d="M12.6956 7.07946L7.07064 12.7045C6.96822 12.8115 6.88793 12.9376 6.83439 13.0757C6.72187 13.3496 6.72187 13.6568 6.83439 13.9307C6.88793 14.0688 6.96822 14.195 7.07064 14.302L12.6956 19.927C12.8005 20.0319 12.9251 20.1151 13.0621 20.1718C13.1992 20.2286 13.346 20.2578 13.4944 20.2578C13.794 20.2578 14.0813 20.1388 14.2931 19.927C14.505 19.7151 14.624 19.4278 14.624 19.1282C14.624 18.8286 14.505 18.5413 14.2931 18.3295L10.5806 14.6282L9.45564 13.5032L10.5806 12.3782L14.2931 8.67696C14.3986 8.57237 14.4823 8.44795 14.5394 8.31086C14.5965 8.17377 14.6259 8.02672 14.6259 7.87821C14.6259 7.7297 14.5965 7.58265 14.5394 7.44556C14.4823 7.30847 14.3986 7.18404 14.2931 7.07946C14.1886 6.97402 14.0641 6.89032 13.927 6.83321C13.7899 6.77609 13.6429 6.74669 13.4944 6.74669C13.3459 6.74669 13.1988 6.77609 13.0617 6.83321C12.9246 6.89032 12.8002 6.97402 12.6956 7.07946Z" fill="#6B7177"/>
</svg>
