<svg width="27" height="27" viewBox="0 0 27 27" fill="none" xmlns="http://www.w3.org/2000/svg">
<path d="M16.4141 12.3828L7.87531 12.3828C7.57694 12.3828 7.29079 12.5013 7.07982 12.7123C6.86884 12.9233 6.75031 13.2094 6.75031 13.5078C6.75031 13.8062 6.86884 14.0923 7.07982 14.3033C7.29079 14.5143 7.57694 14.6328 7.87531 14.6328L16.4141 14.6328L17.5391 13.5078L16.4141 12.3828Z" fill="#F8FEFE"/>
<path d="M14.2965 19.9264L19.9215 14.3014C20.024 14.1944 20.1043 14.0682 20.1578 13.9302C20.2703 13.6563 20.2703 13.349 20.1578 13.0752C20.1043 12.9371 20.024 12.8109 19.9215 12.7039L14.2965 7.0789C14.1917 6.97401 14.0671 6.8908 13.9301 6.83403C13.793 6.77726 13.6461 6.74805 13.4978 6.74805C13.1982 6.74805 12.9109 6.86706 12.699 7.0789C12.4872 7.29074 12.3682 7.57806 12.3682 7.87765C12.3682 8.17724 12.4872 8.46456 12.699 8.6764L16.4115 12.3777L17.5365 13.5027L16.4115 14.6277L12.699 18.3289C12.5936 18.4335 12.5099 18.5579 12.4528 18.695C12.3957 18.8321 12.3663 18.9791 12.3663 19.1276C12.3663 19.2762 12.3957 19.4232 12.4528 19.5603C12.5099 19.6974 12.5936 19.8218 12.699 19.9264C12.8036 20.0318 12.9281 20.1155 13.0651 20.1727C13.2022 20.2298 13.3493 20.2592 13.4978 20.2592C13.6463 20.2592 13.7934 20.2298 13.9304 20.1727C14.0675 20.1155 14.192 20.0318 14.2965 19.9264Z" fill="#8AD6F0"/>
</svg>
