<svg width="24" height="24" viewBox="0 0 24 24" fill="none" xmlns="http://www.w3.org/2000/svg">
<g clip-path="url(#clip0_284_23330)">
<path fill-rule="evenodd" clip-rule="evenodd" d="M21 5V7.28L19 7V5H5V19H19V17L21 16.72V19C21 20.1 20.1 21 19 21H5C3.89 21 3 20.1 3 19V5C3 3.9 3.89 3 5 3H19C20.1 3 21 3.9 21 5Z" fill="#F8FEFE"/>
<path fill-rule="evenodd" clip-rule="evenodd" d="M21 16.72C21.59 16.37 22 15.74 22 15V9C22 8.26 21.59 7.63 21 7.28L19 7H13C11.9 7 11 7.9 11 9V15C11 16.1 11.9 17 13 17H19L21 16.72ZM20 15V9H13V15H20Z" fill="#8AD6F0"/>
<path d="M16 13.5C16.8284 13.5 17.5 12.8284 17.5 12C17.5 11.1716 16.8284 10.5 16 10.5C15.1716 10.5 14.5 11.1716 14.5 12C14.5 12.8284 15.1716 13.5 16 13.5Z" fill="#8AD6F0"/>
</g>
<defs>
<clipPath id="clip0_284_23330">
<rect width="24" height="24" fill="white"/>
</clipPath>
</defs>
</svg>
