<svg width="44" height="44" viewBox="0 0 44 44" fill="none" xmlns="http://www.w3.org/2000/svg">
<rect width="44" height="44" rx="5" fill="#464E60"/>
<g clip-path="url(#clip0_284_23346)">
<path d="M22 12C16.48 12 12 16.48 12 22C12 27.52 16.48 32 22 32C27.52 32 32 27.52 32 22C32 16.48 27.52 12 22 12ZM22 30C17.59 30 14 26.41 14 22C14 17.59 17.59 14 22 14C26.41 14 30 17.59 30 22C30 26.41 26.41 30 22 30Z" fill="#F8FEFE"/>
<path d="M21 28H23V26H21V28ZM22 16C19.79 16 18 17.79 18 20H20C20 18.9 20.9 18 22 18C23.1 18 24 18.9 24 20C24 22 21 21.75 21 25H23C23 22.75 26 22.5 26 20C26 17.79 24.21 16 22 16Z" fill="#8AD6F0"/>
</g>
<defs>
<clipPath id="clip0_284_23346">
<rect width="24" height="24" fill="white" transform="translate(10 10)"/>
</clipPath>
</defs>
</svg>
