<svg width="44" height="44" viewBox="0 0 44 44" fill="none" xmlns="http://www.w3.org/2000/svg">
<rect width="44" height="44" rx="5" fill="#464E60"/>
<g clip-path="url(#clip0_284_23341)">
<path d="M28 26V21C28 17.93 26.37 15.36 23.5 14.68V14C23.5 13.17 22.83 12.5 22 12.5C21.17 12.5 20.5 13.17 20.5 14V14.68C17.64 15.36 16 17.92 16 21V26L14 28V29H30V28L28 26ZM26 27H18V21C18 18.52 19.51 16.5 22 16.5C24.49 16.5 26 18.52 26 21V27Z" fill="#F8FEFE"/>
<path d="M22 32C23.1 32 24 31.1 24 30H20C20 31.1 20.9 32 22 32Z" fill="#8AD6F0"/>
</g>
<defs>
<clipPath id="clip0_284_23341">
<rect width="24" height="24" fill="white" transform="translate(10 10)"/>
</clipPath>
</defs>
</svg>
