<svg width="123" height="54" viewBox="0 0 123 54" fill="none" xmlns="http://www.w3.org/2000/svg">
<g clip-path="url(#clip0_284_23267)">
<path d="M64.2143 30.5228H61.8611V19.272H56.6129V30.5228H54.2596V17.375H64.2143V30.5228Z" fill="#F8FEFE"/>
<path d="M78.1129 17.375V30.5228H75.8903V20.399L70.7542 30.5228H68.1395V17.375H70.362V27.2734L75.4047 17.375H78.1129Z" fill="#F8FEFE"/>
<path d="M86.3519 17.375C87.7838 17.375 88.9168 17.7068 89.7511 18.3705C90.5853 19.0216 91.0024 19.942 91.0024 21.1315V22.2209C91.0024 23.4105 90.5542 24.3433 89.6577 25.0195C88.7612 25.6832 87.5534 26.015 86.0344 26.015H84.3908V30.5228H82.0376V17.375H86.3519ZM88.6491 21.2442C88.6491 20.5555 88.4375 20.0421 88.0141 19.704C87.5908 19.3534 86.9994 19.1781 86.2398 19.1781H84.3908V24.2119H85.9597C87.7527 24.2119 88.6491 23.5044 88.6491 22.0894V21.2442Z" fill="#F8FEFE"/>
<path d="M58.8915 35.9134C60.0619 35.9134 61.0455 36.1388 61.8424 36.5896C62.6517 37.0404 63.2556 37.6727 63.654 38.4867C64.0649 39.288 64.2704 40.2147 64.2704 41.2665V44.2153C64.2704 45.2547 64.0649 46.175 63.654 46.9764C63.2556 47.7778 62.6517 48.4101 61.8424 48.8734C61.0455 49.3242 60.0619 49.5496 58.8915 49.5496C57.7335 49.5496 56.7499 49.3242 55.9405 48.8734C55.1437 48.4101 54.5398 47.7778 54.1289 46.9764C53.7305 46.175 53.5312 45.2547 53.5312 44.2153V41.2665C53.5312 40.2147 53.7305 39.288 54.1289 38.4867C54.5398 37.6727 55.1437 37.0404 55.9405 36.5896C56.7499 36.1388 57.7335 35.9134 58.8915 35.9134ZM58.8915 37.7353C57.8954 37.7353 57.1421 38.0484 56.6316 38.6745C56.1335 39.3006 55.8845 40.1583 55.8845 41.2477V44.2529C55.8845 45.3298 56.1335 46.1813 56.6316 46.8073C57.1421 47.4209 57.8954 47.7277 58.8915 47.7277C59.8876 47.7277 60.6346 47.4209 61.1327 46.8073C61.6432 46.1813 61.8984 45.3298 61.8984 44.2529V41.2477C61.8984 40.1583 61.6432 39.3006 61.1327 38.6745C60.6346 38.0484 59.8876 37.7353 58.8915 37.7353Z" fill="#F8FEFE"/>
<path d="M77.3824 36.1576V49.3054H74.6556L69.5195 39.1065V49.3054H67.4464V36.1576H70.2666L75.2906 46.0185V36.1576H77.3824Z" fill="#F8FEFE"/>
<path d="M88.9472 47.3896V49.3054H81.2898V36.1576H83.6431V47.3896H88.9472Z" fill="#F8FEFE"/>
<path d="M95.5848 37.9795V47.4835H97.2657V49.3054H91.5506V47.4835H93.2315V37.9795H91.5506V36.1576H97.2657V37.9795H95.5848Z" fill="#F8FEFE"/>
<path d="M110.458 36.1576V49.3054H107.731L102.595 39.1065V49.3054H100.522V36.1576H103.342L108.366 46.0185V36.1576H110.458Z" fill="#F8FEFE"/>
<path d="M116.718 37.9795V41.7173H121.593V43.5392H116.718V47.4647H122.004V49.3054H114.365V36.1576H122.004V37.9795H116.718Z" fill="#F8FEFE"/>
<path fill-rule="evenodd" clip-rule="evenodd" d="M54.0253 17.1406H64.4474V30.758H61.6267V19.5072H56.846V30.758H54.0253V17.1406ZM54.4927 17.6102V30.2885H56.3785V19.0377H62.0941V30.2885H63.9799V17.6102H54.4927ZM67.9051 17.1406H70.5951V26.2997L75.2611 17.1406H78.3459V30.758H75.6559V21.3772L70.8968 30.758H67.9051V17.1406ZM68.3726 17.6102V30.2885H70.6104L76.1234 19.4217V30.2885H77.8785V17.6102H75.547L70.1276 28.248V17.6102H68.3726ZM81.8032 17.1406H86.3512C87.8172 17.1406 89.007 17.4803 89.8946 18.1862C90.7927 18.8875 91.2355 19.8803 91.2355 21.1319V22.2213C91.2355 23.4799 90.7564 24.4843 89.7973 25.2077L89.7957 25.2089C88.8467 25.9114 87.5848 26.2502 86.0337 26.2502H84.6239V30.758H81.8032V17.1406ZM82.2706 17.6102V30.2885H84.1565V25.7806H86.0337C87.5202 25.7806 88.6736 25.4559 89.5175 24.8316C90.3509 24.2026 90.768 23.3415 90.768 22.2213V21.1319C90.768 20.0049 90.3768 19.1571 89.607 18.5563L89.6053 18.5549C88.8246 17.9339 87.7486 17.6102 86.3512 17.6102H82.2706ZM84.1565 18.9438H86.2392C87.0314 18.9438 87.6819 19.1264 88.1606 19.522C88.653 19.9162 88.8822 20.5061 88.8822 21.2446V22.0898C88.8822 22.8506 88.6383 23.4576 88.1205 23.8663C87.6134 24.2665 86.8798 24.4471 85.959 24.4471H84.1565V18.9438ZM84.6239 19.4133V23.9775H85.959C86.8313 23.9775 87.4424 23.8043 87.8317 23.497C88.2104 23.1982 88.4148 22.744 88.4148 22.0898V21.2446C88.4148 20.6066 88.2211 20.1702 87.868 19.8882L87.8664 19.8869L87.8648 19.8856C87.4969 19.5809 86.9651 19.4133 86.2392 19.4133H84.6239ZM58.8908 36.1486C57.763 36.1486 56.8208 36.368 56.0539 36.795C55.2975 37.223 54.7267 37.8209 54.337 38.5926C53.9576 39.3561 53.7643 40.2455 53.7643 41.2669V44.2158C53.7643 45.2239 53.9573 46.1069 54.3367 46.8705C54.7262 47.6297 55.2973 48.2285 56.0551 48.6696C56.8218 49.0961 57.7636 49.3152 58.8908 49.3152C60.0316 49.3152 60.9729 49.0956 61.7262 48.6698C62.4971 48.2284 63.0675 47.6297 63.4443 46.8719L63.4456 46.8693C63.837 46.1059 64.036 45.2234 64.036 44.2158V41.2669C64.036 40.2462 63.8368 39.3576 63.4456 38.5946L63.4446 38.5926L63.4436 38.5907C63.0668 37.8209 62.4971 37.2235 61.7284 36.7953L61.727 36.7946C60.9737 36.3684 60.032 36.1486 58.8908 36.1486ZM55.8266 36.3847C56.6782 35.9103 57.703 35.6791 58.8908 35.6791C60.0901 35.6791 61.1155 35.9099 61.9558 36.3851C62.8047 36.8581 63.4422 37.5246 63.8621 38.3815C64.292 39.2208 64.5034 40.1847 64.5034 41.2669V44.2158C64.5034 45.2862 64.2917 46.244 63.8618 47.0831C63.4417 47.9273 62.8046 48.5929 61.9574 49.0778L61.9564 49.0784C61.116 49.5538 60.0904 49.7848 58.8908 49.7848C57.703 49.7848 56.6782 49.5535 55.8266 49.0792L55.8247 49.0781L55.8228 49.077C54.9883 48.5918 54.3524 47.9267 53.9205 47.0843L53.9191 47.0817C53.5021 46.2429 53.2969 45.2856 53.2969 44.2158V41.2669C53.2969 40.185 53.5019 39.2213 53.9192 38.3822L53.9198 38.3809C54.3517 37.5253 54.9884 36.8588 55.8252 36.3854L55.8266 36.3847ZM67.212 35.9232H70.4089L75.0563 45.0448V35.9232H77.6155V49.5406H74.5113L69.7526 40.0911V49.5406H67.212V35.9232ZM67.6795 36.3928V49.0711H69.2852V38.1227L74.7986 49.0711H77.148V36.3928H75.5237V46.9929L70.123 36.3928H67.6795ZM81.0554 35.9232H83.8761V47.1552H89.1803V49.5406H81.0554V35.9232ZM81.5228 36.3928V49.0711H88.7129V47.6248H83.4087V36.3928H81.5228ZM91.3162 35.9232H97.4987V38.2147H95.8178V47.2491H97.4987V49.5406H91.3162V47.2491H92.9971V38.2147H91.3162V35.9232ZM91.7836 36.3928V37.7451H93.4646V47.7187H91.7836V49.0711H97.0313V47.7187H95.3504V37.7451H97.0313V36.3928H91.7836ZM100.287 35.9232H103.484L108.132 45.0448V35.9232H110.691V49.5406H107.587L102.828 40.0911V49.5406H100.287V35.9232ZM100.755 36.3928V49.0711H102.36V38.1227L107.874 49.0711H110.223V36.3928H108.599V46.9929L103.198 36.3928H100.755ZM114.131 35.9232H122.237V38.2147H116.951V41.4829H121.826V43.7744H116.951V47.2304H122.237V49.5406H114.131V35.9232ZM114.598 36.3928V49.0711H121.769V47.6999H116.484V43.3048H121.359V41.9525H116.484V37.7451H121.769V36.3928H114.598ZM56.4501 38.5261C57.0154 37.8329 57.8428 37.501 58.8908 37.501C59.938 37.501 60.7605 37.8325 61.3137 38.5272C61.868 39.2077 62.1315 40.1239 62.1315 41.2481V44.2533C62.1315 45.3663 61.8674 46.2762 61.313 46.9563C60.7592 47.6384 59.9368 47.9629 58.8908 47.9629C57.8444 47.9629 57.0174 47.6383 56.4516 46.9583L56.4499 46.9563L56.4483 46.9543C55.9074 46.2743 55.6501 45.3652 55.6501 44.2533V41.2481C55.6501 40.1245 55.907 39.2088 56.4483 38.5283L56.4501 38.5261ZM56.8126 38.8225C56.3584 39.3942 56.1176 40.1936 56.1176 41.2481V44.2533C56.1176 45.294 56.3578 46.0872 56.8119 46.6592C57.2671 47.205 57.9462 47.4933 58.8908 47.4933C59.8368 47.4933 60.5086 47.2043 60.9509 46.6594L60.9512 46.659C61.4176 46.087 61.664 45.294 61.664 44.2533V41.2481C61.664 40.1942 61.4173 39.3952 60.9512 38.8237L60.9494 38.8215C60.5065 38.2647 59.8352 37.9705 58.8908 37.9705C57.9472 37.9705 57.2684 38.2643 56.8126 38.8225Z" fill="#F8FEFE"/>
<path d="M0 4.69565L14.023 0V37.5652L0 42.2609V4.69565Z" fill="url(#paint0_linear_284_23267)"/>
<path d="M43.0038 11.7391L14.023 0L0 4.69565L28.9808 16.4348L43.0038 11.7391Z" fill="url(#paint1_linear_284_23267)"/>
<path d="M14.023 37.5625L0 42.2582L6.66092 44.606L20.6839 39.9103L14.023 37.5625Z" fill="#2FC177"/>
<path d="M36.2261 46.957L22.2031 51.6527L28.864 54.0005L42.887 49.3049L36.2261 46.957Z" fill="url(#paint2_linear_284_23267)"/>
<path d="M28.9844 16.4339L43.0074 11.7383V49.3035L28.9844 53.9991V16.4339Z" fill="#2FC177"/>
</g>
<defs>
<linearGradient id="paint0_linear_284_23267" x1="7.01149" y1="0" x2="7.01149" y2="42.2609" gradientUnits="userSpaceOnUse">
<stop stop-color="#2B9562"/>
<stop offset="1" stop-color="#2FBC75"/>
</linearGradient>
<linearGradient id="paint1_linear_284_23267" x1="6.58392" y1="2.32326" x2="37.8809" y2="15.6991" gradientUnits="userSpaceOnUse">
<stop stop-color="#2FC177"/>
<stop offset="1" stop-color="#2B9562"/>
</linearGradient>
<linearGradient id="paint2_linear_284_23267" x1="25.0439" y1="51.7608" x2="40.7241" y2="46.9868" gradientUnits="userSpaceOnUse">
<stop stop-color="#2B9562"/>
<stop offset="1" stop-color="#2FBC75"/>
</linearGradient>
<clipPath id="clip0_284_23267">
<rect width="123" height="54.0005" fill="white"/>
</clipPath>
</defs>
</svg>
