<svg width="24" height="24" viewBox="0 0 24 24" fill="none" xmlns="http://www.w3.org/2000/svg">
<path d="M19 5.50002H12.72L12.4 4.50002C12.1926 3.91325 11.8077 3.40553 11.2989 3.04718C10.7901 2.68884 10.1824 2.49762 9.56 2.50002H5C4.20435 2.50002 3.44129 2.81609 2.87868 3.3787C2.31607 3.94131 2 4.70437 2 5.50002V18.5C2 19.2957 2.31607 20.0587 2.87868 20.6213C3.44129 21.184 4.20435 21.5 5 21.5H19C19.7956 21.5 20.5587 21.184 21.1213 20.6213C21.6839 20.0587 22 19.2957 22 18.5V8.50002C22 7.70437 21.6839 6.94131 21.1213 6.3787C20.5587 5.81609 19.7956 5.50002 19 5.50002ZM20 18.5C20 18.7652 19.8946 19.0196 19.7071 19.2071C19.5196 19.3947 19.2652 19.5 19 19.5H5C4.73478 19.5 4.48043 19.3947 4.29289 19.2071C4.10536 19.0196 4 18.7652 4 18.5V5.50002C4 5.23481 4.10536 4.98045 4.29289 4.79292C4.48043 4.60538 4.73478 4.50002 5 4.50002H9.56C9.76964 4.49948 9.97416 4.56484 10.1446 4.68686C10.3151 4.80889 10.4429 4.9814 10.51 5.18002L11.05 6.82002C11.1171 7.01864 11.2449 7.19116 11.4154 7.31318C11.5858 7.4352 11.7904 7.50056 12 7.50002H19C19.2652 7.50002 19.5196 7.60538 19.7071 7.79292C19.8946 7.98045 20 8.23481 20 8.50002V18.5Z" fill="#F8FEFE"/>
<path d="M14.2863 10.7902L10.9963 14.0902L9.70628 12.7902C9.51798 12.6019 9.26258 12.4961 8.99628 12.4961C8.72998 12.4961 8.47458 12.6019 8.28628 12.7902C8.09798 12.9785 7.99219 13.2339 7.99219 13.5002C7.99219 13.7665 8.09798 14.0219 8.28628 14.2102L10.2863 16.2102C10.3792 16.3039 10.4898 16.3783 10.6117 16.4291C10.7336 16.4798 10.8643 16.506 10.9963 16.506C11.1283 16.506 11.259 16.4798 11.3809 16.4291C11.5027 16.3783 11.6133 16.3039 11.7063 16.2102L15.7063 12.2102C15.8946 12.0219 16.0004 11.7665 16.0004 11.5002C16.0004 11.2339 15.8946 10.9785 15.7063 10.7902C15.518 10.6019 15.2626 10.4961 14.9963 10.4961C14.73 10.4961 14.4746 10.6019 14.2863 10.7902Z" fill="#8AD6F0"/>
</svg>
