<svg width="24" height="24" viewBox="0 0 24 24" fill="none" xmlns="http://www.w3.org/2000/svg">
<path d="M21 17.9998H19V14.9998C19 14.7345 18.8946 14.4802 18.7071 14.2927C18.5196 14.1051 18.2652 13.9998 18 13.9998H13V11.2898H11V13.9998H6C5.73478 13.9998 5.48043 14.1051 5.29289 14.2927C5.10536 14.4802 5 14.7345 5 14.9998V17.9998H3C2.73478 17.9998 2.48043 18.1051 2.29289 18.2927C2.10536 18.4802 2 18.7345 2 18.9998V20.9998C2 21.265 2.10536 21.5193 2.29289 21.7069C2.48043 21.8944 2.73478 21.9998 3 21.9998C3.26522 21.9998 3.51957 21.8944 3.70711 21.7069C3.89464 21.5193 4 21.265 4 20.9998V19.9998H8V20.9998C8 21.265 8.10536 21.5193 8.29289 21.7069C8.48043 21.8944 8.73478 21.9998 9 21.9998C9.26522 21.9998 9.51957 21.8944 9.70711 21.7069C9.89464 21.5193 10 21.265 10 20.9998V18.9998C10 18.7345 9.89464 18.4802 9.70711 18.2927C9.51957 18.1051 9.26522 17.9998 9 17.9998H7V15.9998H17V17.9998H15C14.7348 17.9998 14.4804 18.1051 14.2929 18.2927C14.1054 18.4802 14 18.7345 14 18.9998V20.9998C14 21.265 14.1054 21.5193 14.2929 21.7069C14.4804 21.8944 14.7348 21.9998 15 21.9998C15.2652 21.9998 15.5196 21.8944 15.7071 21.7069C15.8946 21.5193 16 21.265 16 20.9998V19.9998H20V20.9998C20 21.265 20.1054 21.5193 20.2929 21.7069C20.4804 21.8944 20.7348 21.9998 21 21.9998C21.2652 21.9998 21.5196 21.8944 21.7071 21.7069C21.8946 21.5193 22 21.265 22 20.9998V18.9998C22 18.7345 21.8946 18.4802 21.7071 18.2927C21.5196 18.1051 21.2652 17.9998 21 17.9998Z" fill="#F8FEFE"/>
<path fill-rule="evenodd" clip-rule="evenodd" d="M12.9992 11.2902L14.1292 11.8802C14.2939 11.9664 14.4795 12.005 14.665 11.9915C14.8505 11.9781 15.0286 11.9131 15.1792 11.8041C15.3298 11.695 15.447 11.5461 15.5177 11.374C15.5884 11.202 15.6096 11.0137 15.5792 10.8302L15.1792 8.4602L16.8991 6.7702C17.0294 6.64299 17.1225 6.48261 17.1683 6.30639C17.2141 6.13016 17.211 5.94476 17.1592 5.7702C17.1012 5.59248 16.9946 5.43456 16.8514 5.31436C16.7082 5.19417 16.5342 5.11651 16.3492 5.0902L13.9992 4.7202L12.8992 2.5602C12.8173 2.39113 12.6894 2.24855 12.5302 2.14878C12.3711 2.04901 12.187 1.99609 11.9992 1.99609C11.8113 1.99609 11.6272 2.04901 11.4681 2.14878C11.3089 2.24855 11.181 2.39113 11.0992 2.5602L9.99915 4.7202L7.60915 5.0702C7.42407 5.09651 7.25007 5.17417 7.1069 5.29436C6.96373 5.41456 6.85711 5.57248 6.79915 5.7502C6.74734 5.92476 6.74417 6.11016 6.78999 6.28639C6.83581 6.46261 6.92888 6.62299 7.05915 6.7502L8.81915 8.4602L8.41915 10.8302C8.38867 11.0137 8.40995 11.202 8.4806 11.374C8.55126 11.5461 8.66848 11.695 8.81912 11.8041C8.96975 11.9131 9.14781 11.9781 9.3333 11.9915C9.51879 12.005 9.70436 11.9664 9.86915 11.8802L10.9992 11.2902H12.9992ZM11.5292 8.7502C11.6736 8.67224 11.835 8.63102 11.9992 8.6302C12.1633 8.63102 12.3247 8.67224 12.4692 8.7502L13.2692 9.1702L13.1192 8.2702C13.0929 8.11101 13.1056 7.94783 13.1561 7.79459C13.2066 7.64135 13.2934 7.50261 13.4092 7.3902L14.0592 6.7502L13.1592 6.6202C12.9981 6.59869 12.8448 6.53828 12.7124 6.44419C12.5799 6.3501 12.4724 6.22517 12.3992 6.0802L11.9992 5.2602L11.5992 6.0802C11.5259 6.22517 11.4184 6.3501 11.2859 6.44419C11.1535 6.53828 11.0002 6.59869 10.8392 6.6202L9.93915 6.7502L10.5892 7.3902C10.7049 7.50261 10.7917 7.64135 10.8422 7.79459C10.8927 7.94783 10.9054 8.11101 10.8792 8.2702L10.7292 9.1702L11.5292 8.7502Z" fill="#8AD6F0"/>
</svg>
